<svg width="64" height="64" viewBox="0 0 64 64" fill="none" xmlns="http://www.w3.org/2000/svg">
<g clip-path="url(#clip0_1_699)">
<path d="M60.0312 35.1742L54.9261 33.2051L52.3232 30.6022C52.1561 30.4351 51.9407 30.3446 51.7207 30.3304V28.2593C52.9475 26.9513 53.8207 25.2949 54.1731 23.4289C54.3919 23.4388 54.6127 23.4212 54.8306 23.3767C56.078 23.1213 56.9834 21.9639 56.9834 20.6249V19.9413C56.9834 19.1666 56.6692 18.4556 56.1577 17.9473C56.9856 13.4447 56.3037 9.77547 54.177 7.31959C52.1198 4.9442 48.8056 3.80882 44.5929 4.0367C40.7009 4.24707 38.1884 6.03783 37.3924 6.69296C36.9567 6.74471 36.2144 6.89771 35.4632 7.34846C34.4219 7.97321 33.1808 9.28559 33.1808 11.9897C33.1808 14.3487 33.5578 16.3182 33.8308 17.4356C32.9158 17.8814 32.3037 18.8474 32.3037 19.9518V20.6248C32.3037 21.9638 33.209 23.1212 34.4564 23.3765C34.6743 23.4212 34.8953 23.4387 35.1139 23.4288C35.4663 25.2948 36.3397 26.9512 37.5663 28.2592V30.3303C37.3463 30.3444 37.1308 30.4349 36.9638 30.6021L34.3609 33.2049L29.2558 35.1741C28.8141 35.3443 28.3923 35.5652 28.002 35.8303C27.5738 36.1213 27.4625 36.7043 27.7534 37.1326C27.9348 37.3996 28.2296 37.5433 28.5296 37.5433C28.711 37.5433 28.8943 37.4907 29.0556 37.3812C29.3278 37.1963 29.6221 37.0423 29.9305 36.9233L34.6684 35.0958L38.2909 40.5297C38.7399 41.2034 39.4597 41.6355 40.2653 41.7152C40.3549 41.7241 40.4446 41.7285 40.5336 41.7285C40.9999 41.7285 41.4524 41.6059 41.8529 41.3792L41.0756 59.0128C41.0527 59.5301 41.4536 59.9679 41.9709 59.9907C41.9849 59.9913 41.9989 59.9916 42.0129 59.9916C42.5117 59.9916 42.9267 59.5984 42.9488 59.0953L43.6703 42.7276H45.6166L46.3381 59.0953C46.3602 59.5986 46.7752 59.9916 47.274 59.9916C47.288 59.9916 47.302 59.9913 47.316 59.9907C47.8332 59.9679 48.2341 59.5301 48.2113 59.0128L47.434 41.3792C47.8345 41.6059 48.2868 41.7285 48.7533 41.7285C48.8423 41.7285 48.932 41.7241 49.0216 41.7152C49.8272 41.6355 50.5468 41.2034 50.996 40.5297L54.6185 35.0958L59.3564 36.9233C60.0209 37.1796 60.5929 37.5885 61.0426 38.0986L57.8012 41.34C56.6301 42.5111 55.9852 44.0681 55.9852 45.7241V59.0542C55.9852 59.5719 56.405 59.9917 56.9227 59.9917C57.4405 59.9917 57.8602 59.5719 57.8602 59.0542V45.7241C57.8602 44.569 58.3101 43.4827 59.127 42.6659L61.9718 39.8211C62.086 40.2402 62.1394 40.6808 62.1214 41.1314L61.3953 59.0162C61.3743 59.5336 61.7766 59.9699 62.2939 59.9911C62.3069 59.9916 62.3198 59.9918 62.3326 59.9918C62.8328 59.9918 63.2483 59.5967 63.2686 59.0924L63.995 41.2071C64.1014 38.5541 62.5085 36.1297 60.0312 35.1742ZM36.9492 23.0423C36.7838 22.1421 35.9503 21.4879 35.0507 21.5545C34.9795 21.5596 34.9063 21.5546 34.8325 21.5396C34.4598 21.4634 34.1787 21.07 34.1787 20.6249V19.9516C34.1787 19.5168 34.4693 19.125 34.8402 19.0599C35.1532 19.0049 35.4529 19.1198 35.6425 19.3671C35.8147 19.5915 36.0443 19.752 36.3064 19.831C36.6904 19.947 37.1138 19.8789 37.4393 19.6491C38.0255 19.2353 38.5428 18.7296 38.9767 18.1461C39.2857 17.7306 39.1992 17.1434 38.7838 16.8345C38.3682 16.5255 37.781 16.6119 37.472 17.0274C37.2557 17.3184 37.0112 17.5825 36.742 17.8163C36.4448 17.562 36.0975 17.3783 35.7254 17.2734C35.4845 16.3506 35.0558 14.3737 35.0558 11.9895C35.0558 10.5536 35.4984 9.54472 36.3713 8.99097C37.0524 8.55884 37.7733 8.54159 37.7728 8.54147C38.0124 8.54147 38.2457 8.44709 38.4197 8.28246C38.4425 8.26096 40.7472 6.12221 44.6939 5.90883C48.3067 5.71383 51.0957 6.62583 52.7593 8.54684C54.4361 10.4831 54.9945 13.4557 54.3887 17.1764C54.1376 17.1675 53.8627 17.1865 53.5891 17.2321L52.7083 15.1169C52.5286 14.6854 52.0578 14.4524 51.6056 14.5702C51.5185 14.593 42.8608 16.7878 39.2307 12.2682C38.9066 11.8646 38.3165 11.8001 37.9127 12.1244C37.509 12.4486 37.4445 13.0386 37.7689 13.4424C41.4759 18.0576 48.8315 17.0536 51.28 16.564L51.9611 18.1996C52.254 18.9028 53.0032 19.2868 53.7417 19.1126C54.0449 19.0413 54.3345 19.0396 54.4432 19.0611C54.8224 19.1366 55.1082 19.5148 55.1082 19.941V20.6248C55.1082 21.07 54.8271 21.4633 54.4544 21.5395C54.3807 21.5546 54.3071 21.5596 54.2362 21.5544C53.3367 21.4889 52.5032 22.1419 52.3377 23.0423C51.6557 26.7553 48.4198 29.4503 44.6434 29.4503C40.8671 29.4503 37.6312 26.7553 36.9492 23.0423ZM41.1081 39.6143C40.8703 39.8521 40.5939 39.8637 40.4502 39.8495C40.3066 39.8353 40.0377 39.7696 39.8512 39.4898L36.2018 34.0158L37.6694 32.5482L43.2719 37.4505L41.1081 39.6143ZM43.7529 40.8527L43.8097 39.5642L44.6433 38.7306L45.4769 39.5642L45.5337 40.8527H43.7529ZM44.6434 36.159L39.4413 31.6071V29.8128C40.9538 30.7747 42.7433 31.3253 44.6434 31.3253C46.5436 31.3253 48.3332 30.7747 49.8457 29.8128V31.6071L44.6434 36.159ZM49.436 39.4898C49.2493 39.7697 48.9805 39.8353 48.837 39.8495C48.6931 39.8637 48.4167 39.8521 48.179 39.6142L46.0151 37.4503L51.6176 32.5481L53.0852 34.0157L49.436 39.4898Z" fill="#005ED2"/>
<path d="M29.7307 40.0875L25.1529 38.0893L22.6505 35.5869C22.4829 35.4192 22.2674 35.3292 22.048 35.3152V33.8403C24.1867 32.4349 25.7517 30.1998 26.2545 27.5364C26.5008 27.5474 26.7494 27.5238 26.9944 27.4659C28.1941 27.182 29.0647 26.0324 29.0647 24.7324V24.0489C29.0647 23.0991 28.5934 22.2448 27.8633 21.7435C28.0781 20.8928 28.1876 20.0224 28.1876 19.1462C28.1876 15.2622 26.088 11.8412 22.9234 9.87696C22.8897 6.63532 20.1228 4.00781 16.7249 4.00781C13.327 4.00781 10.5601 6.63532 10.5264 9.87696C7.36186 11.8412 5.26235 15.2624 5.26235 19.1462C5.26235 20.0198 5.3711 20.8876 5.5846 21.736C4.85485 22.2348 4.38522 23.0931 4.38522 24.0591V24.7324C4.38522 26.0324 5.25585 27.182 6.45548 27.4659C6.70048 27.5239 6.94898 27.5474 7.19536 27.5364C7.69823 30.1998 9.26337 32.4349 11.402 33.8403V35.3152C11.1826 35.3292 10.9671 35.4192 10.7995 35.5869L8.29711 38.0893L3.71947 40.0875C1.39034 41.1042 -0.102167 43.4932 0.00545859 46.0324L0.559085 59.094C0.580461 59.5978 0.995587 59.9919 1.49509 59.9919C1.50846 59.9919 1.52196 59.9917 1.53546 59.991C2.05284 59.9692 2.45434 59.532 2.43247 59.0147L1.87871 45.9529C1.84309 45.1112 2.06184 44.2946 2.47309 43.5917L4.93373 46.5445C5.71135 47.4776 6.13948 48.6604 6.13948 49.8749V59.0544C6.13948 59.5722 6.55923 59.9919 7.07698 59.9919C7.59473 59.9919 8.01449 59.5722 8.01449 59.0544V49.8749C8.01449 48.2226 7.43186 46.6136 6.3741 45.3442L3.75822 42.2051C3.9806 42.0518 4.21697 41.9161 4.4696 41.8058L8.45911 40.0643L11.2784 44.6405C11.5567 45.0924 12.017 45.3987 12.5413 45.4812C12.6355 45.4961 12.73 45.5034 12.8241 45.5034C13.2528 45.5034 13.6703 45.3515 14.0013 45.069L15.7878 43.5446V59.0543C15.7878 59.572 16.2075 59.9918 16.7253 59.9918C17.243 59.9918 17.6628 59.572 17.6628 59.0543V43.5449L19.4491 45.0692C19.7801 45.3517 20.1977 45.5036 20.6263 45.5036C20.7203 45.5036 20.8149 45.4962 20.9092 45.4815C21.4334 45.399 21.8937 45.0926 22.172 44.6407L24.9913 40.0645L28.9808 41.806C29.2333 41.9162 29.4698 42.052 29.6922 42.2052L27.0763 45.3444C26.0185 46.6136 25.4359 48.2227 25.4359 49.875V59.0545C25.4359 59.5723 25.8557 59.992 26.3734 59.992C26.8912 59.992 27.3109 59.5723 27.3109 59.0545V49.875C27.3109 48.6605 27.7392 47.4777 28.5167 46.5446L30.9773 43.5919C31.3886 44.2947 31.6073 45.1114 31.5717 45.953L31.0181 59.0148C30.9962 59.532 31.3977 59.9692 31.9151 59.9912C31.9286 59.9918 31.9419 59.992 31.9554 59.992C32.4549 59.992 32.8701 59.598 32.8914 59.0942L33.4451 46.0325C33.5526 43.4934 32.0599 41.1042 29.7307 40.0875ZM16.7251 5.88282C18.7196 5.88282 20.4024 7.1552 20.9 8.87921C19.6058 8.39071 18.1975 8.12208 16.7251 8.12208C15.2528 8.12208 13.8445 8.39071 12.5503 8.87921C13.0479 7.1552 14.7305 5.88282 16.7251 5.88282ZM9.03074 27.15C8.86549 26.2497 8.03061 25.5956 7.13236 25.6622C7.05273 25.6678 6.97048 25.661 6.88748 25.6413C6.52998 25.5567 6.26035 25.1659 6.26035 24.7324V24.0591C6.26035 23.6243 6.55098 23.2325 6.92186 23.1674C7.23486 23.1124 7.53448 23.2274 7.72398 23.4745C7.89611 23.699 8.12574 23.8595 8.38811 23.9388C8.77199 24.0548 9.19561 23.9866 9.52087 23.7568C10.0982 23.3493 10.6087 22.8525 11.0382 22.2805C11.3491 21.8665 11.2655 21.2788 10.8515 20.968C10.4374 20.6571 9.84974 20.7408 9.53887 21.1548C9.32624 21.4379 9.08686 21.6953 8.82361 21.9239C8.42249 21.5809 7.93061 21.3661 7.40886 21.301C7.22923 20.5949 7.13736 19.8728 7.13736 19.1464C7.13736 14.1016 11.4384 9.99721 16.7251 9.99721C22.0118 9.99721 26.3128 14.1015 26.3128 19.1464C26.3128 19.8714 26.2214 20.592 26.0424 21.2969C25.7957 21.3165 25.5449 21.3569 25.3128 21.4171L24.608 20.8376C24.2539 20.5464 23.8082 20.4006 23.357 20.4275C21.979 20.5089 14.9218 20.6953 11.301 16.362C10.969 15.9647 10.3779 15.9117 9.98049 16.2437C9.58312 16.5757 9.53024 17.167 9.86224 17.5642C11.648 19.7014 14.2671 21.1465 17.6468 21.8595C20.2344 22.4054 22.5347 22.3524 23.4359 22.301L24.5354 23.2051C24.838 23.454 25.2624 23.4891 25.6013 23.2919C25.7603 23.2053 26.2928 23.1225 26.5252 23.1689C26.9043 23.2443 27.1901 23.6225 27.1901 24.0489V24.7324C27.1901 25.166 26.9204 25.5568 26.5629 25.6413C26.48 25.6609 26.3977 25.668 26.318 25.662C25.4203 25.5968 24.5849 26.2497 24.4195 27.1499C23.7375 30.863 20.5017 33.5581 16.7253 33.5581C12.9488 33.5581 9.71274 30.863 9.03074 27.15ZM12.8378 43.5971L10.018 39.0201L11.4625 37.5756L15.3448 41.4578L12.8378 43.5971ZM16.7251 40.1865L13.2771 36.7384V34.7989C14.3535 35.2087 15.5166 35.4331 16.7251 35.4331C17.9336 35.4331 19.0968 35.2087 20.1732 34.7991V36.7384L16.7251 40.1865ZM20.6125 43.5971L18.1055 41.4578L21.9878 37.5756L23.4323 39.0201L20.6125 43.5971Z" fill="#005ED2"/>
</g>
<defs>
<clipPath id="clip0_1_699">
<rect width="64" height="64" fill="white"/>
</clipPath>
</defs>
</svg>
