<svg width="78" height="67" viewBox="0 0 78 67" fill="none" xmlns="http://www.w3.org/2000/svg">
<path d="M42.5716 3.3596C41.3257 4.00232 40.8273 6.12824 40.8273 7.87099C40.8273 9.61375 40.6612 29.6616 40.6612 30.119C40.6612 30.5763 40.2222 30.91 40.3052 32.1089C40.341 32.8081 40.4628 33.5181 40.9388 34.0124M42.5716 3.3596C44.4727 2.76309 46.4233 2.35342 48.3978 2.13596C48.3978 2.13596 54.6392 5.0282 58.199 2.13596M42.5716 3.3596C41.3138 4.00232 40.8155 6.20239 40.8155 7.92043C40.8155 9.63847 40.6494 29.674 40.6494 30.1684C40.6494 30.6628 40.2103 30.9224 40.2934 32.1584C40.3291 32.8575 40.4628 33.5181 40.9388 34.0124M42.5716 3.3596C44.4762 2.75815 46.4308 2.34433 48.4096 2.1236C48.4096 2.1236 54.6155 5.0282 58.199 2.13596M40.9388 34.0124L41.3265 36.4L43.0937 36.4844M41.7173 45.4083C41.0528 51.2175 40.5307 62.5763 40.5307 62.5763C44.1069 63.9485 47.8653 64.7365 51.6727 64.9123M62.7282 34.0124C63.2379 33.462 65.0002 29.9989 65.6033 29.5628C66.1253 29.2908 66.4457 29.7482 67.4425 30.3662C68.4392 30.9842 70.2547 29.3774 70.2547 29.3774C70.2547 29.3774 75.8909 21.8131 76.6741 20.7254C77.4572 19.6377 76.33 17.0174 76.33 17.0174C76.33 17.0174 69.6732 8.42719 67.4899 5.84396C65.3066 3.26072 64.3455 3.1124 64.3455 3.1124M62.7282 34.0124C63.2431 33.4436 65.0135 29.9637 65.627 29.5133C66.1491 29.2414 66.4695 29.6987 67.4662 30.3167C68.4629 30.9347 70.2784 29.3279 70.2784 29.3279C70.2784 29.3279 75.8554 21.8007 76.6978 20.6759C77.5403 19.5512 76.3537 16.9679 76.3537 16.9679C76.3537 16.9679 69.6614 8.42719 67.4662 5.84396C65.271 3.26072 64.3455 3.1124 64.3455 3.1124M62.7282 34.0124L61.9243 28L63.4437 26.4233C63.4437 26.4233 63.7047 26.3368 63.4437 25.4098C63.2422 24.8256 63.2514 24.1851 63.4698 23.6075C63.6881 23.0299 64.1005 22.5547 64.6302 22.2704C65.5363 21.9697 66.4205 21.6021 67.2763 21.1703C67.7984 20.8861 67.5374 20.4658 67.1814 20.1321L62.091 15.3982C62.091 15.3982 61.3553 21.8254 61.3553 22.8142C61.3553 24.5323 63.1352 36.0023 63.4911 42.8374C63.8471 49.6725 63.9302 63.3302 63.9302 63.3302C63.9302 63.3302 60.0144 65.518 51.7083 65.5921C51.5659 65.5921 51.5659 64.8752 51.5659 64.8752C47.7691 64.7127 44.0189 63.9415 40.4476 62.5886C40.4476 62.5886 40.9341 51.2298 41.6342 45.4206M64.3455 3.1124L58.199 2.13596M43.0937 36.4844C42.4962 39.462 42.0448 42.4693 41.741 45.4948C41.0409 51.304 40.5544 62.6628 40.5544 62.6628C44.1173 64.0162 47.8598 64.7875 51.649 64.9494C51.649 64.9494 51.649 65.6786 51.7914 65.6786C60.0856 65.6045 64.0014 63.4044 64.0014 63.4044C64.0014 63.4044 63.9183 49.7466 63.5623 42.9115C63.2063 36.0765 61.4265 24.6188 61.4265 22.8884C61.4265 21.8996 62.1503 15.4724 62.1503 15.4724C62.1503 15.4724 59.5873 2.35844 59.2431 2.27192C59.077 2.1854 58.1752 2.1854 58.1752 2.1854C53.9747 4.73156 48.3384 2.16068 48.3384 2.16068C47.8326 2.17818 47.3288 2.23603 46.8315 2.33372C46.7009 2.59328 47.757 12.0734 44.9448 15.4724C45.132 17.9924 45.0883 20.5253 44.8143 23.0367C44.0904 28.9571 43.0937 36.4844 43.0937 36.4844ZM52.0643 3.21128C52.0643 3.21128 53.1322 13.433 52.7169 17.932C52.3016 22.4311 52.0643 37.7822 51.8389 44.37C51.6134 50.9579 51.7439 66 51.7439 66M34.93 36.5462C35.5521 39.5337 35.9839 42.3685 36.2946 45.4083C36.9947 51.2175 37.4812 62.5763 37.4812 62.5763C33.7767 64.0478 29.9032 65.0077 25.9594 65.4314C20.335 65.864 14.0936 63.2932 14.0936 63.2932C14.0936 63.2932 14.1766 49.6354 14.5326 42.8003C14.8886 35.9652 16.6685 24.5075 16.6685 22.7771C16.6685 21.7883 15.9328 15.3611 15.9328 15.3611L10.8423 20.1074C10.4863 20.4287 10.2253 20.8613 10.7474 21.1333C11.6046 21.5651 12.4886 21.9367 13.3935 22.2457C13.9232 22.53 14.3357 23.0052 14.554 23.5828C14.7723 24.1604 14.7815 24.8009 14.5801 25.3851C14.319 26.2997 14.5801 26.3986 14.5801 26.3986L16.0955 28L15.6442 31.6C15.1226 31.04 12.9953 29.9476 12.373 29.5133C11.8509 29.229 11.5068 29.6616 10.5338 30.3044C9.56081 30.9471 7.7216 29.2908 7.7216 29.2908C7.7216 29.2908 2.14465 21.7636 1.30217 20.6389C0.459694 19.5141 1.64628 16.9309 1.64628 16.9309C1.64628 16.9309 8.31489 8.39011 10.5338 5.80687C12.7527 3.22364 13.6783 3.1124 13.6783 3.1124L19.8248 2.09888C21.2517 3.16624 22.9646 3.73933 24.7214 3.73711C26.4781 3.73489 28.1897 3.15748 29.6141 2.08652M34.93 36.5462L36.7455 36.2742L36.9353 34.0124C37.4096 33.5218 37.6928 32.8658 37.7303 32.1707C37.8134 30.9347 37.3744 30.6628 37.3744 30.1684C37.3744 29.674 37.2083 9.65083 37.2083 7.92043C37.2083 6.19003 36.7099 3.96524 35.4521 3.32252C33.5464 2.72562 31.5923 2.31189 29.6141 2.08652M34.93 36.5462C34.93 36.5462 32.3551 21.1085 33.3518 14.7802C33.5417 13.6555 30.7888 2.42024 30.7888 2.42024M29.6141 2.08652C28.1873 3.15849 26.4727 3.73538 24.7135 3.73538C22.9543 3.73538 21.2397 3.15849 19.8129 2.08652M18.6738 2.35844L15.8734 15.3241M19.7654 2.08652C20.2971 2.96413 21.0376 3.68367 21.9149 4.17527C22.7923 4.66688 23.7768 4.91386 24.7728 4.89224C25.7577 5.00823 26.7521 4.78923 27.6076 4.26794C28.463 3.74665 29.1336 2.95105 29.5192 2M25.5204 4.2248C23.304 4.22167 21.1434 3.50029 19.3383 2.16068C19.5974 2.11311 19.8589 2.0801 20.1214 2.0618C21.7871 2.77553 23.5559 3.19332 25.3543 3.2978C26.9218 3.13575 28.4553 2.71869 29.8989 2.0618L30.9194 2.23484C29.3272 3.39781 27.4604 4.08587 25.5204 4.2248ZM25.5204 4.2248C27.4569 4.09686 29.3234 3.42172 30.9194 2.27192L29.8989 2.09888C28.4553 2.75577 26.9218 3.17284 25.3543 3.33488C23.5559 3.2304 21.7871 2.81261 20.1214 2.09888C19.8589 2.11718 19.5974 2.15019 19.3383 2.19776C21.1476 3.5242 23.3078 4.23251 25.5204 4.2248ZM33.2925 23.1109C33.2925 23.1109 33.696 27.4121 33.9095 29.5257M44.4227 28.2773V30.119H51.8389V28.2773H48.1308H44.4227ZM48.5995 2.1854C50.2639 2.90344 52.0334 3.32139 53.8323 3.4214C55.4006 3.26324 56.9346 2.84602 58.3769 2.1854L59.3974 2.35844C57.8075 3.52595 55.9395 4.21447 53.9984 4.3484C51.7872 4.35973 49.6271 3.65578 47.8163 2.33372C48.0733 2.2634 48.3352 2.21382 48.5995 2.1854ZM19.3383 2.0618H30.9312V4.26188H19.3383V2.0618ZM19.0772 2.23484C19.0772 2.23484 20.0977 5.58439 24.939 5.72035C29.7802 5.85631 30.5396 2.17304 30.5396 2.17304L29.8158 2.0618C29.3997 3.00032 28.707 3.77609 27.8384 4.27625C26.9698 4.77641 25.9707 4.97488 24.9864 4.8428C23.9855 4.87218 22.9945 4.63018 22.1104 4.14049C21.2264 3.6508 20.4797 2.93024 19.9434 2.04944L19.0772 2.23484Z" stroke="#005ED2" stroke-width="2" stroke-miterlimit="10"/>
</svg>
