<svg width="64" height="64" viewBox="0 0 64 64" fill="none" xmlns="http://www.w3.org/2000/svg">
<g clip-path="url(#clip0_1_690)">
<path d="M15.7271 4.64083L14.152 5.10421C13.6546 5.2507 13.3695 5.77267 13.516 6.27023C13.6365 6.67989 14.0104 6.94503 14.4165 6.94503C14.5044 6.94503 14.5932 6.93234 14.6816 6.90646L16.2567 6.44308C16.7541 6.29659 17.0392 5.77462 16.8928 5.27706C16.7463 4.77902 16.2245 4.49484 15.7271 4.64083Z" fill="#005ED2"/>
<path d="M4.198 10.3639L7.87533 9.30007C8.34384 9.16454 8.82328 9.4772 8.88817 9.96059C8.93545 10.3128 8.74416 10.6538 8.41896 10.7971L4.4262 12.5565L2.45225 13.5018C1.76606 13.8304 1.1978 12.8817 1.81133 12.4318C2.12089 12.2048 2.15527 11.7552 1.88383 11.4838L1.68965 11.2896C1.00023 10.6002 1.80572 9.47591 2.68024 9.90699L3.47797 10.3002C3.70165 10.4105 3.95845 10.4332 4.198 10.3639Z" fill="#005ED2"/>
<path d="M50.1146 14.9389C49.9412 14.6732 49.6449 14.5126 49.328 14.5126H48.3241C47.8925 10.4798 46.1856 7.17896 43.2409 4.69113C39.6966 1.69694 34.2212 0.120742 26.9677 0.00648193C21.6403 -0.0775038 17.3846 0.681786 17.1971 0.715966C16.953 0.762354 11.1857 1.91472 8.80149 6.64722C7.82888 8.57742 7.76247 10.0442 8.60326 11.0071C10.2672 12.9125 14.7177 11.5228 15.6537 11.2025C15.6889 11.1922 15.7377 11.1776 15.8105 11.1556C18.7332 10.2762 21.5875 9.48222 24.065 8.85965C24.5679 8.73319 24.873 8.22292 24.7466 7.7195C24.6201 7.21656 24.1094 6.91089 23.607 7.03785C21.1022 7.66725 18.219 8.46902 15.2695 9.35673C15.1928 9.37968 15.1425 9.39482 15.121 9.40117C15.1015 9.40654 15.0825 9.4124 15.0634 9.41875C13.1172 10.0897 10.5665 10.3987 10.0177 9.77129C9.8073 9.53008 9.81756 8.80448 10.4791 7.49196C12.4415 3.59638 17.5008 2.57049 17.5408 2.56268C17.7078 2.5324 34.3194 -0.387079 42.029 6.12621C44.5396 8.24783 46.0191 11.0653 46.4341 14.5126H44.3028C43.9166 11.7 42.7214 9.4788 40.6648 7.74147C36.9125 4.5715 31.0398 5.37327 26.9491 6.25268C26.4418 6.36157 26.1191 6.86109 26.228 7.36842C26.3368 7.87575 26.8368 8.19851 27.3436 8.08913C31.0476 7.29322 36.3325 6.54028 39.4525 9.17655C41.0725 10.5447 42.0427 12.2977 42.4025 14.5126H1.06404C0.746676 14.5126 0.450791 14.6727 0.277459 14.9389C0.104127 15.2045 0.0767842 15.5399 0.204708 15.8305C0.29113 16.0263 2.38234 20.6802 7.85964 24.6626C8.27905 24.9678 8.86643 24.8746 9.17159 24.4551C9.47626 24.0357 9.3835 23.4483 8.96408 23.1431C5.61706 20.7095 3.62008 17.9706 2.64991 16.391H47.7465C47.4624 16.8559 47.0874 17.4218 46.6152 18.0512C46.6147 18.0517 46.6138 18.0522 46.6133 18.0532C46.4702 18.2436 46.3193 18.4384 46.1616 18.6362C46.1582 18.6406 46.1548 18.645 46.1509 18.6494C46.1006 18.7124 46.0479 18.7763 45.9956 18.8398C45.96 18.8837 45.9253 18.9267 45.8882 18.9711C45.8784 18.9834 45.8677 18.9956 45.8574 19.0078C45.3633 19.5991 44.793 20.2246 44.1388 20.8608C41.2805 23.6397 36.2295 27.1451 28.3973 28.066C27.9398 28.1197 27.5887 28.4972 27.5687 28.9571L27.5672 28.9816C26.8275 29.2042 26.0893 29.42 25.3398 29.6383C25.3276 29.6417 25.3149 29.6456 25.3027 29.6491C24.4795 29.8883 23.6705 30.1242 22.8858 30.3624L22.8238 28.9571C22.8033 28.4972 22.4522 28.1197 21.9952 28.0655C18.4666 27.651 15.2001 26.6817 12.2862 25.1851C11.8248 24.9483 11.2584 25.1304 11.0216 25.5919C10.7848 26.0533 10.9669 26.6192 11.4278 26.856C14.3213 28.3424 17.5316 29.3409 20.9816 29.8287L21.0314 30.9494C19.8518 31.3434 18.761 31.755 17.8094 32.2116C17.2752 32.4675 16.1635 33.0002 15.1699 33.9069C13.8672 35.0959 13.2066 36.5061 13.2066 38.0989C13.2066 40.9363 14.892 43.1996 17.9534 44.4716C18.9714 44.8949 20.1398 45.2304 21.6749 45.537L21.8414 49.3203C21.4962 49.3579 21.1652 49.3925 20.8571 49.4253C20.2966 49.4843 19.7673 49.54 19.3025 49.5952L19.0886 49.6201C16.245 49.9438 13.5962 50.498 13.4702 52.3452C13.4351 52.8623 13.6065 53.3394 13.9658 53.7242C15.0507 54.8853 17.6488 54.9776 20.9386 54.9776C21.2668 54.9776 21.6564 54.9737 22.0904 54.962L22.1085 55.3643C19.7639 55.8209 13.1558 57.4947 8.76829 62.4382C8.52269 62.7145 8.46264 63.1096 8.614 63.447C8.76585 63.7839 9.10128 64.0007 9.47089 64.0007H40.9216C41.2912 64.0007 41.6267 63.7839 41.778 63.447C41.9299 63.1096 41.8693 62.7145 41.6242 62.4382C40.1092 60.7311 38.1761 59.2516 35.8784 58.0411C35.4199 57.7989 34.8516 57.9752 34.6099 58.4337C34.3682 58.8927 34.544 59.4611 35.003 59.7028C36.3545 60.4152 37.5639 61.2248 38.6185 62.1222H11.775C16.6034 58.0201 23.1353 57.0909 23.2076 57.0811C23.69 57.0167 24.043 56.5948 24.021 56.109L23.9668 54.8711C23.9834 54.8702 23.9995 54.8682 24.0161 54.8672C24.1787 54.8555 24.3428 54.8428 24.5093 54.8287C24.5298 54.8267 24.5508 54.8248 24.5713 54.8228C24.7402 54.8082 24.9106 54.7925 25.083 54.7754C25.309 54.7525 25.5312 54.7276 25.7504 54.7007C25.7582 54.6998 25.7661 54.6993 25.7734 54.6978C25.998 54.6709 26.2192 54.6412 26.4364 54.6099L26.3705 56.109C26.349 56.5943 26.7021 57.0157 27.183 57.0811C27.202 57.0836 29.1199 57.3497 31.6183 58.232C32.1076 58.4044 32.6442 58.1485 32.817 57.6593C32.9894 57.17 32.733 56.6334 32.2438 56.461C30.5608 55.8663 29.136 55.5347 28.283 55.3663L28.3319 54.2696C30.9362 53.6958 32.9073 52.7808 34.2115 51.5352C35.4976 50.3066 36.1772 48.7524 36.1772 47.0405C36.1772 43.7401 33.4786 42.221 31.8698 41.6092C31.0568 41.3001 30.1272 41.0462 28.9256 40.8065L29.1985 34.6228C33.0406 33.4724 37.121 32.0929 40.5657 29.9264C45.0025 27.1358 47.5883 23.4571 48.2582 18.9902C49.5716 17.2055 50.1512 15.912 50.1873 15.83C50.3153 15.5399 50.2879 15.2045 50.1146 14.9389ZM31.2023 43.3656C33.2569 44.1469 34.2989 45.3832 34.2989 47.0409C34.2989 48.2275 33.8204 49.3115 32.9142 50.1772C31.7551 51.2842 29.863 52.0845 27.2797 52.5679C27.2709 52.5694 27.2621 52.5698 27.2533 52.5713C26.7001 52.6748 26.121 52.7632 25.5253 52.836C25.3178 52.8609 25.1084 52.8848 24.894 52.9068C24.7524 52.9209 24.6089 52.9341 24.4644 52.9468C24.4375 52.9492 24.4111 52.9517 24.3848 52.9541C24.2446 52.9658 24.104 52.9771 23.9619 52.9878C23.9375 52.9898 23.9131 52.9912 23.8887 52.9932C23.7452 53.0034 23.6001 53.0137 23.4546 53.0225C23.4371 53.0235 23.42 53.0244 23.4024 53.0254C23.2652 53.0337 23.127 53.0415 22.9888 53.0484C22.1827 53.0884 21.4733 53.0996 20.9323 53.0996C19.802 53.0996 18.3958 53.0996 17.2396 52.9707C15.9418 52.8262 15.5058 52.5781 15.3774 52.4771C15.4926 52.3716 15.8529 52.1226 16.8651 51.8774C17.7527 51.6631 18.7219 51.5527 19.301 51.4868L19.5237 51.4609C19.9758 51.4072 20.4992 51.352 21.0534 51.2939C21.6774 51.228 22.2892 51.1616 22.8858 51.0918C22.8995 51.0908 22.9132 51.0908 22.9268 51.0893C23.75 50.9936 24.8193 50.8599 25.9111 50.6728C28.4075 50.2514 30.3943 49.6616 31.4553 48.6469C31.9787 48.1469 32.1515 47.4946 31.9699 46.7089C31.7336 45.6845 30.5315 45.1732 28.7498 44.7997L28.8421 42.7069C29.8001 42.9076 30.5515 43.118 31.2023 43.3656ZM23.148 36.3113C23.8853 36.095 24.647 35.8972 25.3388 35.7175C25.812 35.595 26.2626 35.4778 26.6669 35.365C26.7616 35.3386 26.8544 35.3122 26.9437 35.2864C27.0018 35.2693 27.0614 35.2522 27.12 35.2351C27.1776 35.218 27.2357 35.2014 27.2938 35.1843L26.7016 48.6113C26.6352 48.625 26.5683 48.6386 26.5009 48.6523C26.4784 48.6567 26.4555 48.6616 26.4325 48.666C25.5571 48.8393 24.6216 48.9809 23.712 49.0996L23.148 36.3113ZM28.6038 48.1079L28.6658 46.7065C29.6926 46.9443 30.0457 47.1435 30.1599 47.2314C30.1633 47.2529 30.1648 47.2699 30.1643 47.2822C30.1628 47.2841 30.1604 47.2865 30.1575 47.289C29.8264 47.6054 29.281 47.8754 28.6038 48.1079ZM39.5657 28.3365C36.1406 30.4909 31.944 31.8547 28.0423 33.0075C28.036 33.0095 28.0296 33.0099 28.0238 33.0119C27.4828 33.1716 26.9457 33.3293 26.4189 33.4826C25.975 33.6115 25.4365 33.7512 24.8662 33.8991C21.5412 34.7619 17.7723 35.74 17.7723 37.9807C17.7723 40.0618 20.0949 40.9656 21.4904 41.3602L21.589 43.6009C20.4069 43.3456 19.4636 43.0653 18.6741 42.7372C16.2924 41.7474 15.0849 40.1868 15.0849 38.0989C15.0849 35.8596 17.1029 34.633 18.6214 33.9055C19.6609 33.4074 20.9113 32.9557 22.2809 32.5173C22.2828 32.5168 22.2853 32.5168 22.2872 32.5158C23.1412 32.2428 24.0366 31.9762 24.9258 31.7155C24.9492 31.7087 24.9726 31.7018 24.9956 31.695C25.2744 31.6134 25.5527 31.5324 25.8281 31.4523C28.1854 30.7663 30.8552 29.9894 33.3624 29.0177C38.6957 27.5645 42.5412 24.983 45.231 22.4214C44.0816 24.7076 42.1872 26.6876 39.5657 28.3365ZM21.402 39.3533C20.2756 38.949 19.6511 38.468 19.6511 37.9807C19.6511 37.9768 19.7658 37.5559 21.2956 36.9382L21.402 39.3533Z" fill="#005ED2"/>
</g>
<defs>
<clipPath id="clip0_1_690">
<rect width="64" height="64" fill="white"/>
</clipPath>
</defs>
</svg>
