<svg width="64" height="64" viewBox="0 0 64 64" fill="none" xmlns="http://www.w3.org/2000/svg">
<g clip-path="url(#clip0_1_681)">
<path d="M54.0224 43.3149V30.3834C54.0224 29.8643 53.6019 29.4436 53.083 29.4436H31.5354C31.0166 29.4436 30.596 29.8643 30.596 30.3834V43.3056H24.7889C24.4381 40.435 22.5044 38.0481 19.8891 37.0475V9.4475C20.1608 9.23025 20.4062 8.98188 20.6206 8.70788H36.7159C36.0002 9.77713 35.5819 11.0618 35.5819 12.4424C35.5819 12.9581 35.6421 13.4599 35.7525 13.9426L32.3544 17.8866C31.3114 19.0988 31.3114 20.8582 32.3544 22.0704L36.5774 26.9776C37.4315 27.9704 38.9816 28.0942 39.9826 27.2489C41.0001 26.3892 41.126 24.8193 40.2564 23.8088L36.9603 19.9785L38.611 18.0604C39.673 18.7624 40.9439 19.1725 42.3092 19.1725C43.6746 19.1725 44.9455 18.7624 46.0075 18.0604L47.6582 19.9785L44.3621 23.8088C43.4925 24.8193 43.6184 26.3894 44.6359 27.2489C45.6369 28.0941 47.1869 27.9702 48.0411 26.9776L52.2643 22.0702C53.3071 20.8582 53.3071 19.0987 52.2639 17.8862L48.8661 13.9427C48.9765 13.46 49.0368 12.9583 49.0368 12.4425C49.0368 10.3919 48.1141 8.55375 46.6637 7.31825V4.356C46.6634 1.95412 44.7101 0 42.3092 0C40.3005 0 38.6059 1.36837 38.1058 3.222H20.6209C19.8044 2.17875 18.5353 1.50625 17.1111 1.50625C14.6536 1.50625 12.6544 3.50638 12.6544 5.965C12.6544 7.40625 13.342 8.68925 14.4056 9.50488V21.988C14.4056 22.5071 14.8263 22.9277 15.345 22.9277C15.8638 22.9277 16.2844 22.5071 16.2844 21.988V10.3454C16.854 10.4528 17.4426 10.4491 18.0105 10.3322V36.5906C17.4364 36.5262 16.8585 36.5262 16.2844 36.5906V25.7467C16.2844 25.2278 15.8639 24.807 15.345 24.807C14.8263 24.807 14.4056 25.2278 14.4056 25.7467V37.0474C11.779 38.0522 9.83963 40.4554 9.50113 43.3426C4.19075 43.7729 0 48.231 0 53.6529C0 59.3584 4.63962 64 10.3426 64H19.4974C20.0161 64 20.4368 63.5793 20.4368 63.0602C20.4368 62.5411 20.0161 62.1205 19.4974 62.1205H10.3426C5.67562 62.1205 1.87875 58.322 1.87875 53.6527C1.87875 48.9835 5.67562 45.185 10.3426 45.185H53.6575C58.3245 45.185 62.1214 48.9836 62.1214 53.6529C62.1214 58.3219 58.3245 62.1205 53.6575 62.1205H23.2546C22.7359 62.1205 22.3153 62.5412 22.3153 63.0602C22.3153 63.5793 22.7359 64 23.2546 64H53.6574C59.3604 64 64 59.3582 64 53.6527C64 48.0697 59.5566 43.5083 54.0224 43.3149ZM35.4235 21.0734L38.8327 25.0351C39.0381 25.2738 38.996 25.6479 38.7429 25.8347C38.5156 26.0025 38.1855 25.9654 38.0013 25.7512L33.7783 20.844C33.3466 20.3424 33.3466 19.6144 33.7779 19.1133L36.5428 15.9043C36.7371 16.2271 36.9586 16.5315 37.2026 16.8162L35.4234 18.8838C34.8776 19.5181 34.8776 20.439 35.4235 21.0734ZM50.8402 19.1129C51.2719 19.6145 51.2719 20.3426 50.8402 20.8441L46.6171 25.7514C46.4216 25.9785 46.0764 26.006 45.8475 25.8126C45.7347 25.7175 45.6661 25.584 45.6545 25.4369C45.6427 25.2896 45.6894 25.147 45.7856 25.0351L49.195 21.0732C49.7407 20.4389 49.7407 19.5181 49.195 18.8836L47.4159 16.8162C47.6599 16.5315 47.8814 16.2271 48.0757 15.9043L50.8402 19.1129ZM47.1577 12.4425C47.1577 15.1171 44.9827 17.2931 42.3092 17.2931C39.6357 17.2931 37.4608 15.1171 37.4608 12.4425C37.4608 9.76788 39.6357 7.59188 42.3092 7.59188C44.9827 7.59188 47.1577 9.76788 47.1577 12.4425ZM42.3092 1.8795C43.6743 1.8795 44.7848 2.99038 44.7848 4.356V6.1865C43.205 5.55863 41.4136 5.55863 39.8338 6.1865V4.356C39.8338 2.9905 40.9442 1.8795 42.3092 1.8795ZM37.9551 5.1015V6.82837H21.4832C21.5954 6.25925 21.5954 5.6705 21.4832 5.1015H37.9551ZM14.5331 5.96488C14.5331 4.54275 15.6896 3.38562 17.1111 3.38562C18.5326 3.38562 19.6891 4.54275 19.6891 5.96488C19.6891 7.387 18.5326 8.544 17.1111 8.544C15.6896 8.544 14.5331 7.387 14.5331 5.96488ZM40.1591 31.3231H44.4593V35.2189L42.6304 34.552C42.4226 34.4764 42.1947 34.4762 41.987 34.5521L40.1591 35.2188V31.3231ZM32.4748 31.3231H38.2805V36.5616C38.2805 37.2023 38.9386 37.665 39.5416 37.4445L42.3089 36.4351L45.077 37.4446C45.6804 37.6644 46.338 37.2026 46.338 36.5616V31.3231H52.1437V43.3056H32.4748V31.3231ZM17.1475 38.4206C20.038 38.4206 22.4422 40.5392 22.8927 43.3056H11.4023C11.8528 40.5391 14.257 38.4206 17.1475 38.4206Z" fill="#005ED2"/>
<path d="M41.9403 46.5752H10.7679C6.867 46.5752 3.69336 49.7502 3.69336 53.6528C3.69336 57.5553 6.86688 60.7303 10.7678 60.7303H53.2325C57.1334 60.7303 60.3069 57.5553 60.3069 53.6527C60.3069 49.7502 57.1333 46.5752 53.2324 46.5752H45.6976C45.1788 46.5752 44.7582 46.9959 44.7582 47.5149C44.7582 48.0341 45.1788 48.4547 45.6976 48.4547H53.2324C56.0974 48.4547 58.4283 50.7866 58.4283 53.6528C58.4283 56.5191 56.0975 58.8508 53.2325 58.8508H10.7679C7.90288 58.8508 5.57212 56.5189 5.57212 53.6527C5.57212 50.7864 7.90301 48.4547 10.768 48.4547H41.9403C42.4591 48.4547 42.8797 48.0341 42.8797 47.5149C42.8797 46.9958 42.4592 46.5752 41.9403 46.5752Z" fill="#005ED2"/>
<path d="M8.0835 53.6527C8.0835 55.778 9.81237 57.507 11.9375 57.507C14.0625 57.507 15.7915 55.778 15.7915 53.6527C15.7915 51.5275 14.0626 49.7986 11.9375 49.7986C9.81237 49.7986 8.0835 51.5275 8.0835 53.6527ZM13.9127 53.6527C13.9127 54.7416 13.0266 55.6275 11.9375 55.6275C10.8482 55.6275 9.96212 54.7417 9.96212 53.6527C9.96212 52.564 10.8482 51.6781 11.9375 51.6781C13.0266 51.6782 13.9127 52.564 13.9127 53.6527Z" fill="#005ED2"/>
<path d="M55.9165 53.6527C55.9165 51.5275 54.1876 49.7986 52.0625 49.7986C49.9374 49.7986 48.2085 51.5275 48.2085 53.6527C48.2085 55.778 49.9374 57.507 52.0625 57.507C54.1876 57.507 55.9165 55.778 55.9165 53.6527ZM50.0872 53.6527C50.0872 52.564 50.9734 51.6781 52.0625 51.6781C53.1517 51.6781 54.0379 52.5638 54.0379 53.6527C54.0379 54.7416 53.1517 55.6275 52.0625 55.6275C50.9734 55.6275 50.0872 54.7417 50.0872 53.6527Z" fill="#005ED2"/>
<path d="M28.146 53.4888C28.146 55.614 29.8749 57.343 32 57.343C34.1251 57.343 35.854 55.614 35.854 53.4888C35.854 51.3635 34.125 49.6348 32 49.6348C29.875 49.6348 28.146 51.3636 28.146 53.4888ZM33.9752 53.4888C33.9752 54.5776 33.0891 55.4635 32 55.4635C30.9109 55.4635 30.0247 54.5778 30.0247 53.4888C30.0247 52.4 30.9109 51.5141 32 51.5141C33.0891 51.5143 33.9752 52.4 33.9752 53.4888Z" fill="#005ED2"/>
</g>
<defs>
<clipPath id="clip0_1_681">
<rect width="64" height="64" fill="white"/>
</clipPath>
</defs>
</svg>
