<svg width="64" height="64" viewBox="0 0 64 64" fill="none" xmlns="http://www.w3.org/2000/svg">
<g clip-path="url(#clip0_1_723)">
<path fill-rule="evenodd" clip-rule="evenodd" d="M52.9479 24.9486L55.1133 27.114C55.1894 27.19 55.2472 27.2774 55.2868 27.3707L53.2343 25.6L52.1868 26.4852L51.2246 25.523C50.9073 25.2059 50.9073 24.6914 51.2246 24.3742L53.39 22.2088L49.6072 18.4259L47.4418 20.5913C47.2895 20.7437 47.0828 20.8293 46.8673 20.8293C46.6519 20.8293 46.4452 20.7437 46.2929 20.5913L44.1275 18.4259L41.9621 20.5913C41.8098 20.7437 41.6031 20.8293 41.3877 20.8293C41.1722 20.8293 40.9656 20.7437 40.8133 20.5913L38.6478 18.4259L36.4824 20.5913C36.3301 20.7437 36.1235 20.8293 35.908 20.8293C35.6926 20.8293 35.4859 20.7437 35.3336 20.5913L33.1682 18.4259L31.0028 20.5913C30.8505 20.7437 30.6438 20.8293 30.4283 20.8293C30.2129 20.8293 30.0062 20.7437 29.8539 20.5913L27.6885 18.4259L25.5231 20.5913C25.3708 20.7437 25.1641 20.8293 24.9487 20.8293C24.7332 20.8293 24.5266 20.7437 24.3743 20.5913L22.2088 18.4259L18.426 22.2088L20.5914 24.3742C20.9087 24.6913 20.9087 25.2057 20.5914 25.523L18.426 27.6884L20.5914 29.8539C20.9087 30.171 20.9087 30.6854 20.5914 31.0027L18.426 33.1681L20.5914 35.3335C20.9087 35.6507 20.9087 36.1651 20.5914 36.4824L18.426 38.6478L20.5914 40.8132C20.9087 41.1304 20.9087 41.6448 20.5914 41.962L18.426 44.1274L20.5914 46.2929C20.9087 46.61 20.9087 47.1244 20.5914 47.4417L18.426 49.6071L22.2088 53.39L24.3743 51.2245C24.6915 50.9073 25.2059 50.9073 25.5231 51.2245L26.3773 52.0787L25.6 52.8451L27.7748 55.3466C27.539 55.3717 27.2944 55.2939 27.1137 55.1132L24.9482 52.9478L22.7828 55.1132C22.4657 55.4305 21.9513 55.4306 21.634 55.1132L16.7023 50.1815C16.385 49.8644 16.385 49.35 16.7023 49.0327L18.8677 46.8673L17.2749 45.2744L15.1095 47.4399C14.9572 47.5923 14.7505 47.6778 14.535 47.6778C14.3196 47.6778 14.1129 47.5923 13.9606 47.4399L8.90341 42.3826C8.58614 42.0655 8.58614 41.5511 8.90341 41.2338L11.0688 39.0684L8.48388 36.4834L6.31847 38.6488C6.15989 38.8074 5.95191 38.8867 5.74405 38.8867C5.53618 38.8867 5.32821 38.8074 5.16963 38.6488L0.237951 33.7171C-0.079317 33.3999 -0.079317 32.8855 0.237951 32.5682L2.40337 30.4028L0.237951 28.2374C-0.079317 27.9202 -0.079317 27.4058 0.237951 27.0886L2.40337 24.923L0.237951 22.7576C-0.079317 22.4405 -0.079317 21.926 0.237951 21.6088L2.40337 19.4434L0.237951 17.2779C-0.079317 16.9608 -0.079317 16.4464 0.237951 16.1291L2.40337 13.9637L0.237951 11.7983C-0.079317 11.4811 -0.079317 10.9667 0.237951 10.6494L2.40337 8.48402L0.237951 6.31861C-0.079317 6.00145 -0.079317 5.48704 0.237951 5.16977L5.16963 0.237978C5.32193 0.0855725 5.52849 0 5.74405 0C5.95961 0 6.16617 0.0855725 6.31858 0.237978L8.48399 2.40339L10.6494 0.237978C10.8017 0.0855725 11.0084 0 11.2238 0C11.4393 0 11.6459 0.0855725 11.7982 0.237978L13.9637 2.40339L16.1291 0.237978C16.2814 0.0855725 16.488 0 16.7035 0C16.9189 0 17.1256 0.0855725 17.2779 0.237978L19.4433 2.40339L21.6087 0.237978C21.761 0.0855725 21.9677 0 22.1832 0C22.3986 0 22.6053 0.0855725 22.7576 0.237978L24.923 2.40339L27.0884 0.237978C27.2407 0.0855725 27.4473 0 27.6628 0C27.8784 0 28.085 0.0855725 28.2374 0.237978L30.4028 2.40339L32.5682 0.237978C32.7205 0.0855725 32.9272 0 33.1426 0C33.3581 0 33.5647 0.0855725 33.7172 0.238086L38.6489 5.16988C38.9662 5.48704 38.9662 6.00145 38.6489 6.31871L36.4835 8.48413L39.0685 11.0691L41.2339 8.90365C41.551 8.58638 42.0654 8.58638 42.3827 8.90365L47.4457 13.9666C47.7629 14.2838 47.7629 14.7982 47.4457 15.1155L45.2866 17.2745L46.8737 18.8616L49.0328 16.7026C49.1851 16.5501 49.3917 16.4646 49.6072 16.4646C49.8226 16.4646 50.0293 16.5501 50.1816 16.7026L55.1133 21.6343C55.4306 21.9515 55.4306 22.4659 55.1133 22.7832L52.9479 24.9486ZM12.7922 33.0044L17.2818 37.4941L18.8678 35.9079L16.7405 33.7807C16.7372 33.7777 16.7338 33.7748 16.7305 33.7718C16.7205 33.7631 16.7105 33.7544 16.7009 33.7448L12.2158 29.2597L10.6268 30.8488L12.7159 32.9379C12.7423 32.9585 12.7679 32.9802 12.7922 33.0044ZM12.8281 27.5742L17.2751 32.0211L18.8679 30.4282L16.7025 28.2627C16.6767 28.2369 16.6538 28.2093 16.6321 28.1811L12.2235 23.7725L10.6269 25.3691L12.7923 27.5345C12.8051 27.5472 12.8164 27.5608 12.8281 27.5742ZM12.7922 22.0436L17.2826 26.534L18.8679 24.9485L16.7169 22.7976C16.7117 22.7926 16.7061 22.7883 16.701 22.7832L12.217 18.2992L10.6269 19.8893L12.7104 21.9729C12.7387 21.9947 12.7663 22.0177 12.7922 22.0436ZM12.8067 16.5911L17.2762 21.0606L18.5939 19.7429L11.9438 13.0928L10.6269 14.4098L12.7923 16.5752C12.7951 16.5779 12.7976 16.5809 12.8002 16.5838C12.8023 16.5863 12.8044 16.5887 12.8067 16.5911ZM13.0927 11.9437L19.7428 18.5939L21.06 17.2765L16.5817 12.7983L16.5788 12.7956C16.5775 12.7945 16.5762 12.7934 16.575 12.7922L14.4096 10.6268L13.0927 11.9437ZM18.2987 12.2175L24.9489 18.8676L26.5414 17.275L22.0941 12.8279C22.0911 12.8252 22.088 12.8225 22.085 12.8198C22.0747 12.8109 22.0645 12.8019 22.0548 12.7922L19.8894 10.6268L18.2987 12.2175ZM23.7799 12.216L30.4301 18.8661L32.0226 17.2736L27.5984 12.8494C27.5762 12.8314 27.5548 12.8126 27.5345 12.7922L25.3691 10.6268L23.7799 12.216ZM29.2612 12.2145L35.9113 18.8646L37.5038 17.2721L33.0898 12.8581C33.0635 12.8376 33.038 12.816 33.0143 12.7923L30.8488 10.6269L29.2612 12.2145ZM34.7424 12.213L41.3924 18.8631L42.9851 17.2707L38.5812 12.8668C38.5507 12.844 38.5212 12.8196 38.4939 12.7923L36.3285 10.6269L34.7424 12.213ZM45.7223 14.541L41.8082 10.6269L40.2236 12.2115L44.1377 16.1256L45.7223 14.541ZM5.74416 36.9255L7.90957 34.7601C8.06187 34.6077 8.26855 34.5221 8.48399 34.5221C8.69944 34.5221 8.90611 34.6077 9.05841 34.7601L9.47793 35.1796L11.0689 33.5886L8.90351 31.4232C8.58625 31.106 8.58625 30.5916 8.90351 30.2743L11.0689 28.1089L8.90351 25.9435C8.58625 25.6264 8.58625 25.1119 8.90351 24.7947L11.0689 22.6293L8.90351 20.4638C8.58625 20.1467 8.58625 19.6323 8.90351 19.315L11.0689 17.1496L8.90351 14.9842C8.58625 14.667 8.58625 14.1526 8.90351 13.8353L13.8352 8.90354C13.9875 8.75114 14.1941 8.66557 14.4096 8.66557C14.6252 8.66557 14.8317 8.75114 14.9841 8.90354L17.1496 11.069L19.315 8.90354C19.4673 8.75114 19.6739 8.66557 19.8894 8.66557C20.1048 8.66557 20.3115 8.75114 20.4638 8.90354L22.6292 11.069L24.7946 8.90354C24.9469 8.75114 25.1536 8.66557 25.3691 8.66557C25.5845 8.66557 25.7912 8.75114 25.9435 8.90354L28.1089 11.069L30.2743 8.90354C30.4266 8.75114 30.6333 8.66557 30.8487 8.66557C31.0642 8.66557 31.2709 8.75114 31.423 8.90354L33.5885 11.069L35.1795 9.47796L34.7599 9.05844C34.4427 8.74128 34.4427 8.22687 34.7599 7.9096L36.9253 5.74419L33.1425 1.96134L30.9771 4.12676C30.8248 4.27916 30.6181 4.36474 30.4027 4.36474C30.1872 4.36474 29.9805 4.27916 29.8282 4.12676L27.6628 1.96134L25.4974 4.12676C25.3451 4.27916 25.1384 4.36474 24.923 4.36474C24.7076 4.36474 24.5009 4.27916 24.3486 4.12676L22.1832 1.96134L20.0177 4.12676C19.8655 4.27916 19.6588 4.36474 19.4433 4.36474C19.2279 4.36474 19.0212 4.27916 18.8689 4.12676L16.7035 1.96134L14.5381 4.12676C14.3858 4.27916 14.1791 4.36474 13.9637 4.36474C13.7482 4.36474 13.5415 4.27916 13.3892 4.12676L11.2238 1.96134L9.05841 4.12676C8.90611 4.27916 8.69944 4.36474 8.48399 4.36474C8.26855 4.36474 8.06187 4.27916 7.90957 4.12676L5.74416 1.96134L1.96131 5.74419L4.12673 7.90971C4.444 8.22687 4.444 8.74128 4.12673 9.05855L1.96131 11.224L4.12673 13.3894C4.444 13.7065 4.444 14.221 4.12673 14.5382L1.96131 16.7036L4.12673 18.8691C4.444 19.1862 4.444 19.7006 4.12673 20.0179L1.96131 22.1833L4.12673 24.3487C4.444 24.6659 4.444 25.1803 4.12673 25.4976L1.96131 27.663L4.12673 29.8284C4.444 30.1456 4.444 30.66 4.12673 30.9772L1.96131 33.1427L5.74416 36.9255ZM12.2227 34.7327L10.6269 36.3285L12.7924 38.4941C12.8068 38.5085 12.82 38.5237 12.8331 38.5389L12.8348 38.5409L17.2749 42.981L18.868 41.3877L16.7026 39.2223C16.6784 39.198 16.6567 39.1724 16.6361 39.146L12.2227 34.7327ZM10.6269 41.8082L14.5353 45.7166L16.124 44.1279L12.2156 40.2195L10.6269 41.8082Z" fill="#005ED2"/>
</g>
<g clip-path="url(#clip1_1_723)">
<path d="M63.7622 35.7627L61.5968 33.5973L63.7622 31.4319C64.0795 31.1146 64.0795 30.6002 63.7622 30.283L58.8305 25.3512C58.6782 25.1988 58.4716 25.1133 58.2561 25.1133C58.0407 25.1133 57.834 25.1988 57.6817 25.3512L55.5227 27.5103L53.0707 25.0583L55.2297 22.8993C55.547 22.582 55.547 22.0676 55.2297 21.7504L50.1668 16.6875C49.8495 16.3702 49.3351 16.3702 49.0179 16.6875L46.8525 18.8529L45.552 17.5523L45.1324 17.1328L47.2979 14.9674C47.6151 14.6501 47.6151 14.1357 47.2979 13.8186L42.3662 8.88677C42.2137 8.73425 42.007 8.64868 41.7915 8.64868C41.5761 8.64868 41.3694 8.73425 41.2171 8.88666L39.0517 11.0521L36.8863 8.88666C36.7339 8.73425 36.5273 8.64868 36.3118 8.64868C36.0962 8.64868 35.8896 8.73425 35.7373 8.88666L33.5719 11.0521L31.4065 8.88666C31.2542 8.73425 31.0475 8.64868 30.8321 8.64868C30.6166 8.64868 30.41 8.73425 30.2577 8.88666L28.0923 11.0521L25.9268 8.88666C25.7745 8.73425 25.5679 8.64868 25.3524 8.64868C25.137 8.64868 24.9303 8.73425 24.778 8.88666L22.6126 11.0521L20.4472 8.88666C20.2949 8.73425 20.0882 8.64868 19.8728 8.64868C19.6573 8.64868 19.4506 8.73425 19.2983 8.88666L17.1329 11.0521L14.9675 8.88666C14.8151 8.73425 14.6085 8.64868 14.393 8.64868C14.1774 8.64868 13.9709 8.73425 13.8186 8.88666L8.88688 13.8185C8.56961 14.1357 8.56961 14.6501 8.88688 14.9673L11.0523 17.1327L8.88688 19.2981C8.56961 19.6154 8.56961 20.1298 8.88688 20.447L11.0523 22.6124L8.88688 24.7778C8.56961 25.0951 8.56961 25.6095 8.88688 25.9266L11.0523 28.092L8.88688 30.2575C8.56961 30.5747 8.56961 31.0891 8.88688 31.4063L11.0523 33.5717L8.88688 35.7372C8.56961 36.0545 8.56961 36.5689 8.88688 36.8861L11.0523 39.0515L8.88688 41.2169C8.56961 41.5342 8.56961 42.0486 8.88688 42.3657L13.8186 47.2974C13.9771 47.4561 14.1851 47.5354 14.393 47.5354C14.6008 47.5354 14.8088 47.4561 14.9674 47.2974L17.1328 45.1321L17.5523 45.5516L18.8529 46.8522L16.6875 49.0176C16.3702 49.3349 16.3702 49.8493 16.6875 50.1665L21.7447 55.2237C21.897 55.3761 22.1037 55.4617 22.3191 55.4617C22.5346 55.4617 22.7412 55.3761 22.8935 55.2237L25.0589 53.0583L27.5166 55.516L25.3512 57.6814C25.034 57.9986 25.034 58.5131 25.3512 58.8302L30.2829 63.7619C30.6002 64.0793 31.1146 64.0792 31.4317 63.7619L33.5972 61.5965L35.7626 63.7619C36.0798 64.0792 36.5943 64.0792 36.9114 63.7619L39.0768 61.5965L41.2422 63.7619C41.5595 64.0792 42.0739 64.0792 42.3911 63.7619L44.5565 61.5965L46.7219 63.7619C47.0392 64.0793 47.5536 64.0792 47.8708 63.7619L50.0362 61.5965L52.2016 63.7619C52.3602 63.9205 52.5681 63.9999 52.776 63.9999C52.9839 63.9999 53.1918 63.9206 53.3504 63.7619L55.5158 61.5965L57.6813 63.7619C57.9985 64.0792 58.5129 64.0792 58.8301 63.7619L61.0163 61.5757C61.0183 61.5738 61.0201 61.572 61.0219 61.57L63.7618 58.8302C64.079 58.513 64.079 57.9985 63.7618 57.6814L61.5964 55.516L63.7618 53.3505C64.079 53.0333 64.079 52.5189 63.7618 52.2017L61.5964 50.0363L63.7618 47.8709C64.079 47.5536 64.079 47.0392 63.7618 46.722L61.5969 44.5566L63.7623 42.3912C64.0796 42.0739 64.0796 41.5595 63.7623 41.2424L61.5969 39.077L63.7623 36.9115C64.0796 36.5943 64.0796 36.0799 63.7622 35.7627ZM25.9307 46.1427L20.5762 40.7883C20.552 40.764 20.5263 40.7423 20.5 40.7217L18.4108 38.6326L19.9999 37.0435L25.3498 42.3935C25.3626 42.4063 25.3761 42.4175 25.3895 42.4293L27.5168 44.5566L25.9307 46.1427ZM25.924 40.6698L20.6122 35.358C20.6005 35.3447 20.5891 35.331 20.5764 35.3183L18.4109 33.1529L20.0076 31.5563L25.281 36.8298C25.3027 36.858 25.3257 36.8855 25.3514 36.9114L27.5169 39.0768L25.924 40.6698ZM25.9315 35.1826L20.5762 29.8274C20.5504 29.8015 20.5227 29.7785 20.4945 29.7568L18.4109 27.6731L20.0011 26.083L25.3499 31.4319C25.355 31.437 25.3607 31.4413 25.3659 31.4463L27.5169 33.5972L25.9315 35.1826ZM25.9251 29.7093L20.5908 24.3749C20.5858 24.3697 20.5814 24.3641 20.5764 24.359L18.4109 22.1936L19.7279 20.8766L27.2428 28.3916L25.9251 29.7093ZM28.3918 27.2426L20.8767 19.7276L22.1937 18.4106L24.3591 20.576C24.3613 20.5782 24.3636 20.58 24.3658 20.5821L29.7089 25.9252L28.3918 27.2426ZM33.5978 27.5163L26.0828 20.0013L27.6735 18.4106L29.8389 20.576C29.8514 20.5886 29.865 20.6 29.8782 20.6117L35.1903 25.9237L33.5978 27.5163ZM39.079 27.5148L31.564 19.9998L33.1531 18.4106L35.3185 20.576C35.3389 20.5964 35.3602 20.6152 35.3824 20.6332L40.6715 25.9223L39.079 27.5148ZM44.5602 27.5133L37.0453 19.9984L38.6329 18.4107L40.7983 20.5761C40.822 20.5999 40.8476 20.6214 40.8738 20.6419L46.1527 25.9208L44.5602 27.5133ZM50.0414 27.5118L42.5264 19.9969L44.1126 18.4107L46.278 20.5761C46.3053 20.6034 46.3347 20.6278 46.3653 20.6507L51.634 25.9194L50.0414 27.5118ZM49.5922 18.4107L53.5064 22.3249L51.9218 23.9095L48.0076 19.9953L49.5922 18.4107ZM16.5585 43.4088L14.3931 45.5742L10.6102 41.7913L12.7757 39.6259C13.0929 39.3086 13.0929 38.7942 12.7757 38.4771L10.6102 36.3117L12.7757 34.1462C13.0929 33.829 13.0929 33.3146 12.7757 32.9974L10.6102 30.832L12.7757 28.6666C13.0929 28.3493 13.0929 27.8349 12.7757 27.5177L10.6102 25.3523L12.7757 23.1869C13.0929 22.8696 13.0929 22.3552 12.7757 22.0381L10.6102 19.8726L12.7757 17.7072C13.0929 17.39 13.0929 16.8756 12.7757 16.5584L10.6102 14.3929L14.3931 10.61L16.5585 12.7754C16.7108 12.9278 16.9175 13.0134 17.1329 13.0134C17.3484 13.0134 17.555 12.9278 17.7073 12.7754L19.8728 10.61L22.0382 12.7754C22.1905 12.9278 22.3971 13.0134 22.6126 13.0134C22.828 13.0134 23.0347 12.9278 23.187 12.7754L25.3524 10.61L27.5178 12.7754C27.6701 12.9278 27.8768 13.0134 28.0923 13.0134C28.3077 13.0134 28.5144 12.9278 28.6667 12.7754L30.8321 10.61L32.9975 12.7754C33.1498 12.9278 33.3565 13.0134 33.5719 13.0134C33.7874 13.0134 33.994 12.9278 34.1463 12.7754L36.3118 10.61L38.4772 12.7754C38.6295 12.9278 38.8361 13.0134 39.0516 13.0134C39.267 13.0134 39.4737 12.9278 39.626 12.7754L41.7914 10.61L45.5743 14.3929L43.4089 16.5583C43.0916 16.8756 43.0916 17.39 43.4089 17.7071L42.9635 17.2618L41.3725 18.8528L39.2071 16.6874C39.0549 16.535 38.8482 16.4494 38.6328 16.4494C38.4173 16.4494 38.2107 16.535 38.0584 16.6874L35.893 18.8528L33.7275 16.6874C33.5752 16.535 33.3686 16.4494 33.1531 16.4494C32.9377 16.4494 32.731 16.535 32.5787 16.6874L30.4133 18.8528L28.2479 16.6874C28.0956 16.535 27.8889 16.4494 27.6735 16.4494C27.458 16.4494 27.2513 16.535 27.099 16.6874L24.9336 18.8528L22.7682 16.6874C22.6158 16.535 22.4092 16.4494 22.1937 16.4494C21.9781 16.4494 21.7716 16.535 21.6193 16.6874L16.6876 21.6192C16.3703 21.9364 16.3703 22.4508 16.6876 22.768L18.853 24.9334L16.6876 27.0988C16.3703 27.4161 16.3703 27.9305 16.6876 28.2477L18.853 30.4131L16.6876 32.5785C16.3703 32.8958 16.3703 33.4102 16.6876 33.7273L18.853 35.8927L16.6876 38.0582C16.3703 38.3754 16.3703 38.8898 16.6876 39.207L18.853 41.3724L17.262 42.9634L17.7073 43.4088C16.6902 42.3915 16.4835 42.3059 16.2681 42.3059C16.0526 42.3059 15.8459 42.3915 16.5585 43.4088ZM18.4109 44.1124L20.0068 42.5165L25.285 47.7947C25.3056 47.8211 25.3273 47.8467 25.3516 47.871L27.517 50.0364L25.9238 51.6297L21.4837 47.1895C21.47 47.1737 21.4564 47.1578 21.4413 47.1428L18.4109 44.1124ZM22.3193 53.5004L18.4109 49.592L19.9997 48.0033L23.908 51.9117L22.3193 53.5004ZM59.8735 38.5025C59.5563 38.8198 59.5563 39.3342 59.8735 39.6514L62.039 41.8168L59.8735 43.9822C59.5563 44.2995 59.5563 44.8139 59.8735 45.131L62.039 47.2965L59.8735 49.4619C59.5563 49.7791 59.5563 50.2936 59.8735 50.6107L62.039 52.7761L59.8735 54.9415C59.5563 55.2588 59.5563 55.7732 59.8735 56.0904L62.039 58.2558L60.4262 59.8687C60.4246 59.8702 60.423 59.8717 60.4215 59.8732L58.2561 62.0386L56.0907 59.8732C55.9321 59.7146 55.7241 59.6352 55.5163 59.6352C55.3084 59.6352 55.1004 59.7145 54.9419 59.8732L52.7764 62.0386L50.611 59.8732C50.2938 59.556 49.7794 59.556 49.4622 59.8732L47.2968 62.0386L45.1314 59.8732C44.8141 59.556 44.2997 59.556 43.9825 59.8732L41.8171 62.0386L39.6517 59.8732C39.3344 59.556 38.82 59.556 38.5028 59.8732L36.3374 62.0386L34.172 59.8732C33.8549 59.556 33.3404 59.556 33.0232 59.8732L30.8578 62.0386L27.0749 58.2558L29.2403 56.0904C29.5576 55.7731 29.5576 55.2587 29.2403 54.9415L27.0749 52.7761L29.2403 50.6107C29.5576 50.2934 29.5576 49.779 29.2403 49.4619L27.0749 47.2965L29.2403 45.131C29.5576 44.8138 29.5576 44.2994 29.2403 43.9822L27.0749 41.8168L29.2403 39.6514C29.5576 39.3341 29.5576 38.8197 29.2403 38.5025L27.0749 36.3371L29.2403 34.1717C29.5576 33.8544 29.5576 33.34 29.2403 33.0229L27.0749 30.8574L30.8578 27.0746L33.0232 29.24C33.1755 29.3924 33.3822 29.478 33.5976 29.478C33.813 29.478 34.0197 29.3924 34.172 29.24L36.3374 27.0746L38.5028 29.24C38.6551 29.3924 38.8618 29.478 39.0773 29.478C39.2927 29.478 39.4994 29.3924 39.6517 29.24L41.8171 27.0746L43.9825 29.24C44.1348 29.3924 44.3415 29.478 44.5569 29.478C44.7724 29.478 44.9791 29.3924 45.1314 29.24L47.2968 27.0746L49.4622 29.24C49.6145 29.3924 49.8212 29.478 50.0366 29.478C50.2521 29.478 50.4587 29.3924 50.611 29.24L52.7764 27.0746L54.9419 29.24C55.0942 29.3924 55.3008 29.478 55.5163 29.478C55.7317 29.478 55.9384 29.3924 56.0907 29.24L58.2561 27.0746L62.039 30.8574L59.8735 33.0229C59.5563 33.3401 59.5563 33.8545 59.8735 34.1717L62.039 36.3371L59.8735 38.5025Z" fill="#005ED2"/>
</g>
<defs>
<clipPath id="clip0_1_723">
<rect width="55.3513" height="55.3513" fill="white"/>
</clipPath>
<clipPath id="clip1_1_723">
<rect width="55.3513" height="55.3513" fill="white" transform="translate(8.64893 8.64868)"/>
</clipPath>
</defs>
</svg>
