<svg width="64" height="64" viewBox="0 0 64 64" fill="none" xmlns="http://www.w3.org/2000/svg">
<path d="M56.62 50.51C56.1922 50.1859 55.6939 49.9671 55.1657 49.8716C54.6376 49.776 54.0943 49.8063 53.58 49.96L39.86 54H32.26L26.86 51H37C37.2652 51 37.5196 50.8946 37.7071 50.7071C37.8946 50.5196 38 50.2652 38 50V47C37.998 46.7349 37.8942 46.4807 37.71 46.29L35.71 44.29C35.5697 44.1525 35.3926 44.0587 35.2 44.02L20.2 41.02C20.1339 41.0084 20.0671 41.0017 20 41H14C13.8732 40.9981 13.7473 41.0219 13.63 41.07L10 42.52V41C10.0007 40.762 9.91648 40.5316 9.76251 40.3501C9.60855 40.1687 9.39491 40.0481 9.16 40.01L3.16 39.01C3.01641 38.9897 2.87016 38.9997 2.73066 39.0393C2.59115 39.0789 2.46149 39.1473 2.35 39.24C2.24079 39.3344 2.15306 39.451 2.09269 39.5821C2.03232 39.7132 2.00071 39.8557 2 40V60C2 60.2652 2.10536 60.5196 2.29289 60.7071C2.48043 60.8946 2.73478 61 3 61C3.05353 61.0017 3.10709 60.9983 3.16 60.99L9.16 59.99C9.39491 59.9519 9.60855 59.8313 9.76251 59.6499C9.91648 59.4684 10.0007 59.238 10 59V58H12.84L24.68 61.95C24.7839 61.9812 24.8915 61.9981 25 62H40C40.1127 62.0004 40.2246 61.9801 40.33 61.94L55.7 56.52C56.3723 56.2825 56.9544 55.8424 57.3663 55.2604C57.7782 54.6784 57.9996 53.983 58 53.27C58.0031 52.7339 57.8797 52.2046 57.6399 51.725C57.4002 51.2455 57.0507 50.8292 56.62 50.51ZM8 58.15L4 58.82V41.18L8 41.85V58.15ZM55.04 54.63L39.83 60H25.16L13.32 56.05C13.2161 56.0188 13.1085 56.0019 13 56H10V44.68L14.19 43H19.9L34.51 45.92L36 47.41V49H23C22.7794 49.0007 22.5653 49.0742 22.3909 49.2093C22.2165 49.3443 22.0916 49.5332 22.0357 49.7465C21.9798 49.9599 21.996 50.1857 22.0818 50.3889C22.1676 50.5921 22.3181 50.7613 22.51 50.87L31.51 55.87C31.6585 55.9571 31.8279 56.002 32 56H40C40.0949 56.0022 40.1895 55.9886 40.28 55.96L54.15 51.88C54.3647 51.8147 54.5919 51.8015 54.8128 51.8415C55.0336 51.8815 55.2418 51.9736 55.42 52.11C55.6294 52.2666 55.7925 52.477 55.8918 52.7189C55.9911 52.9608 56.0229 53.2251 55.9839 53.4837C55.945 53.7423 55.8366 53.9854 55.6704 54.1873C55.5041 54.3891 55.2863 54.5421 55.04 54.63Z" fill="#005ED2"/>
<path d="M32 40.0001C40.822 40.0001 48 30.5791 48 19.0001V7.0001C48 6.77984 47.9272 6.56576 47.7931 6.39109C47.6589 6.21642 47.4708 6.09092 47.258 6.0341L32.258 2.0341C32.089 1.98896 31.911 1.98896 31.742 2.0341L16.742 6.0341C16.5292 6.09092 16.3411 6.21642 16.2069 6.39109C16.0728 6.56576 16 6.77984 16 7.0001V19.0001C16 30.5791 23.178 40.0001 32 40.0001ZM18 7.7691L32 4.0351L46 7.7691V19.0001C46 29.4771 39.72 38.0001 32 38.0001C24.28 38.0001 18 29.4771 18 19.0001V7.7691Z" fill="#005ED2"/>
<path d="M29.2138 23.5859V26.8069C29.2138 27.1233 29.3395 27.4268 29.5633 27.6505C29.787 27.8742 30.0904 27.9999 30.4068 27.9999H32.7928C33.1092 27.9999 33.4126 27.8742 33.6364 27.6505C33.8601 27.4268 33.9858 27.1233 33.9858 26.8069V23.5859H37.2068C37.5232 23.5859 37.8267 23.4602 38.0504 23.2365C38.2741 23.0127 38.3998 22.7093 38.3998 22.3929V20.0069C38.3998 19.6905 38.2741 19.3871 38.0504 19.1634C37.8267 18.9396 37.5232 18.8139 37.2068 18.8139H33.9858V15.5929C33.9858 15.2765 33.8601 14.973 33.6364 14.7493C33.4126 14.5256 33.1092 14.3999 32.7928 14.3999H30.4068C30.0904 14.3999 29.787 14.5256 29.5633 14.7493C29.3395 14.973 29.2138 15.2765 29.2138 15.5929V18.8139H25.9928C25.6764 18.8139 25.3729 18.9396 25.1492 19.1634C24.9255 19.3871 24.7998 19.6905 24.7998 20.0069V22.3929C24.7998 22.7093 24.9255 23.0127 25.1492 23.2365C25.3729 23.4602 25.6764 23.5859 25.9928 23.5859H29.2138Z" stroke="#005ED2" stroke-width="2"/>
<path d="M52 8H54V6H56V4H54V2H52V4H50V6H52V8Z" fill="#005ED2"/>
<path d="M62 10H60V8H58V10H56V12H58V14H60V12H62V10Z" fill="#005ED2"/>
<path d="M48 33V35H46V37H48V39H50V37H52V35H50V33H48Z" fill="#005ED2"/>
<path d="M56 27H54V29H52V31H54V33H56V31H58V29H56V27Z" fill="#005ED2"/>
<path d="M10 8H12V6H14V4H12V2H10V4H8V6H10V8Z" fill="#005ED2"/>
<path d="M4 14H6V12H8V10H6V8H4V10H2V12H4V14Z" fill="#005ED2"/>
<path d="M14 33V35H12V37H14V39H16V37H18V35H16V33H14Z" fill="#005ED2"/>
<path d="M10 33V31H12V29H10V27H8V29H6V31H8V33H10Z" fill="#005ED2"/>
</svg>
