<svg width="20" height="20" viewBox="0 0 20 20" fill="none" xmlns="http://www.w3.org/2000/svg"><path fill-rule="evenodd" clip-rule="evenodd" d="M2.54 0h3.38a2.55 2.55 0 0 1 2.54 2.56v3.41a2.54 2.54 0 0 1-2.54 2.56H2.54A2.55 2.55 0 0 1 0 5.97v-3.4A2.55 2.55 0 0 1 2.54 0Zm0 11.47h3.38a2.54 2.54 0 0 1 2.54 2.56v3.41A2.55 2.55 0 0 1 5.92 20H2.54A2.55 2.55 0 0 1 0 17.44v-3.4a2.55 2.55 0 0 1 2.54-2.57ZM17.46 0h-3.38a2.55 2.55 0 0 0-2.54 2.56v3.41a2.54 2.54 0 0 0 2.54 2.56h3.38c1.4 0 2.54-1.14 2.54-2.56v-3.4A2.55 2.55 0 0 0 17.46 0Zm-3.38 11.47h3.38c1.4 0 2.54 1.14 2.54 2.56v3.41A2.55 2.55 0 0 1 17.46 20h-3.38a2.55 2.55 0 0 1-2.54-2.56v-3.4a2.54 2.54 0 0 1 2.54-2.57Z" fill="#005ED2"/></svg>