<svg width="24" height="24" viewBox="0 0 24 24" fill="none" xmlns="http://www.w3.org/2000/svg"><path fill-rule="evenodd" clip-rule="evenodd" d="M2 12.02a10 10 0 1 1 5.08 8.68c-.51-.31-.94-.54-1.49-.36l-2.02.6c-.51.16-.97-.24-.82-.78l.67-2.25c.11-.3.09-.64-.07-.9a10.59 10.59 0 0 1-1.35-5Zm8.7 0c0 .7.57 1.28 1.28 1.29a1.28 1.28 0 0 0 0-2.57c-.7 0-1.28.57-1.28 1.28Zm4.61 0c0 .7.57 1.29 1.28 1.29a1.28 1.28 0 0 0 0-2.57c-.71 0-1.28.57-1.28 1.29Zm-7.94 1.29c-.7 0-1.28-.58-1.28-1.29a1.28 1.28 0 1 1 2.56 0c0 .7-.57 1.28-1.28 1.29Z" fill="#fff"/></svg>