<svg width="44" height="44" viewBox="0 0 44 44" fill="none" xmlns="http://www.w3.org/2000/svg"><path d="M22 44a22 22 0 1 0 0-44 22 22 0 0 0 0 44Z" fill="#005ED2"/><path fill-rule="evenodd" clip-rule="evenodd" d="m35.44 30.07-.02.06c-.22.57-.44 1.13-.68 1.7-.2.48-.4.96-.63 1.43-.14.28-.36.72-.58.94-.22.23-.47.43-.74.6-1.53.98-3.45.84-5.14.39-7.24-1.94-16.9-11.6-18.84-18.84-.45-1.7-.59-3.61.4-5.15.16-.26.36-.5.59-.73.22-.22.66-.44.94-.58a99.65 99.65 0 0 1 3.13-1.31l.06-.02a1.32 1.32 0 0 1 1.63.57l2.8 4.85a1.33 1.33 0 0 1-.48 1.82 4 4 0 0 0-2.02 2.6 3.83 3.83 0 0 0 .7 3.15c.86 1.1 1.78 2.14 2.77 3.12.98 1 2.02 1.92 3.12 2.76a3.83 3.83 0 0 0 3.15.7 4 4 0 0 0 2.6-2 1.33 1.33 0 0 1 1.82-.5l4.85 2.8a1.32 1.32 0 0 1 .57 1.64Z" fill="#fff"/></svg>