<svg width="200" height="48" viewBox="0 0 200 48" fill="none" xmlns="http://www.w3.org/2000/svg">
<g clip-path="url(#clip0_7_682)">
<path fill-rule="evenodd" clip-rule="evenodd" d="M59.3556 27.4075H62.1325C62.3747 27.4075 62.4535 27.2376 62.3634 26.9033L60.8933 20.9607C60.8711 20.8806 60.8306 20.8069 60.775 20.7454L60.6568 20.6265C60.5544 20.719 60.4736 20.8331 60.4202 20.9607L59.1416 26.9033C59.0515 27.2376 59.1416 27.4075 59.3725 27.4075H59.3556ZM59.3556 31.7526H62.2226C62.4323 31.7526 62.6334 31.836 62.7822 31.9846C62.931 32.1331 63.0153 32.3349 63.0168 32.5457V36.0071H66.4526C66.6618 36.0071 66.8624 36.0906 67.0102 36.2394C67.1581 36.3881 67.2412 36.5898 67.2412 36.8002V39.6837C67.2412 39.894 67.1581 40.0958 67.0102 40.2445C66.8624 40.3932 66.6618 40.4768 66.4526 40.4768H63.0168V43.9325C63.0153 44.1434 62.931 44.3451 62.7822 44.4936C62.6334 44.6422 62.4323 44.7256 62.2226 44.7256H59.3556C59.1465 44.7256 58.9459 44.642 58.7981 44.4933C58.6502 44.3446 58.5671 44.1428 58.5671 43.9325V40.4768H55.1312C54.9221 40.4768 54.7215 40.3932 54.5737 40.2445C54.4258 40.0958 54.3427 39.894 54.3427 39.6837V36.8228C54.3427 36.6125 54.4258 36.4108 54.5737 36.262C54.7215 36.1133 54.9221 36.0297 55.1312 36.0297H58.5671V32.5457C58.567 32.3402 58.6462 32.1426 58.788 31.9947C58.9299 31.8468 59.1233 31.76 59.3275 31.7526H59.3556ZM48.0906 39.0492C48.1855 40.4274 48.5052 41.7805 49.0368 43.0544H0.79982C0.595927 43.0591 0.398264 42.9836 0.248889 42.8439C0.0995138 42.7043 0.0102175 42.5115 0 42.3066L0 39.814C0.00589981 39.6061 0.0933109 39.409 0.243156 39.2658C0.393001 39.1225 0.593114 39.0446 0.79982 39.0492H48.0906ZM72.3105 43.0771C72.8303 41.7932 73.1385 40.4328 73.2229 39.0492H199.2C199.407 39.0446 199.607 39.1225 199.757 39.2658C199.907 39.409 199.994 39.6061 200 39.814V42.3066C199.99 42.5115 199.901 42.7043 199.751 42.8439C199.602 42.9836 199.404 43.0591 199.2 43.0544L72.3105 43.0771ZM61.6815 3.51738C61.4101 2.53712 60.0187 2.54092 59.7526 3.52265L51.4419 34.1829C49.2284 42.3236 55.0242 47.9773 60.7075 48C66.3907 48.0227 72.4344 42.3349 70.1251 34.0073L61.6815 3.51738Z" fill="#DA0C0C"/>
<path fill-rule="evenodd" clip-rule="evenodd" d="M173.426 31.5655H177.008H180.472C180.849 31.5655 181.097 31.6392 181.204 31.7865C181.327 31.9699 181.386 32.1889 181.373 32.4096V34.7663C181.396 35.0429 181.352 35.321 181.243 35.5764C181.11 35.7146 180.946 35.8198 180.766 35.8837C180.585 35.9476 180.392 35.9684 180.201 35.9446H169.64C169.365 35.968 169.089 35.9233 168.835 35.8143C168.698 35.68 168.593 35.5154 168.529 35.3336C168.466 35.1517 168.445 34.9575 168.469 34.7663V13.545C168.444 13.2677 168.49 12.9887 168.604 12.7349C168.735 12.5939 168.897 12.4863 169.077 12.4213C169.257 12.3562 169.451 12.3356 169.64 12.361H180.241C180.753 12.361 181.08 12.4573 181.21 12.6442C181.364 12.9177 181.435 13.2312 181.412 13.545V15.9356C181.415 16.043 181.393 16.1496 181.349 16.2476C181.305 16.3455 181.24 16.4325 181.159 16.5021C180.933 16.6684 180.655 16.7468 180.376 16.7231H176.997V16.6608H173.426V21.7593H176.529C176.594 21.7586 176.659 21.7707 176.719 21.7951C176.78 21.8194 176.835 21.8555 176.881 21.9013C176.928 21.9471 176.965 22.0016 176.99 22.0618C177.016 22.122 177.03 22.1867 177.03 22.2522V25.7192C177.03 25.7846 177.016 25.8493 176.99 25.9095C176.965 25.9697 176.928 26.0243 176.881 26.07C176.835 26.1158 176.78 26.1519 176.719 26.1763C176.659 26.2006 176.594 26.2128 176.529 26.212H173.426V31.5655ZM0.337729 15.964V13.2731C0.335112 13.0811 0.39632 12.8938 0.511634 12.7409C0.626948 12.588 0.789757 12.4782 0.974205 12.429C1.57876 12.2061 2.84984 12.0947 4.78743 12.0947C6.95032 12.0947 8.59502 12.412 9.71027 13.0408C11.4901 14.0435 12.3914 15.913 12.3914 18.6209C12.4552 19.8412 12.1488 21.0523 11.5127 22.0935C11.1173 22.6754 10.5748 23.1408 9.9412 23.4418C10.5154 23.6746 11.0301 24.0342 11.4474 24.4941C11.8647 24.954 12.1738 25.5024 12.3519 26.0987C12.656 27.1603 12.7929 28.2633 12.7575 29.3675C12.7575 31.3899 12.3857 32.9081 11.631 33.8995C10.5045 35.4102 8.43919 36.1655 5.43517 36.1655C3.14273 36.1655 1.67827 36.0522 1.06996 35.8313C0.811996 35.7749 0.580708 35.6321 0.413928 35.4263C0.247149 35.2204 0.154753 34.9638 0.151855 34.6983V31.7525C0.151855 31.3276 0.343362 31.1123 0.715109 31.1123C0.918099 31.1189 1.11996 31.1454 1.31779 31.1916L2.17394 31.3842C2.49499 31.4466 2.83857 31.5032 3.19342 31.5485C3.58215 31.5957 3.97344 31.6184 4.36499 31.6165C5.57035 31.6165 6.4265 31.2313 6.93906 30.4835C7.26846 29.9612 7.43337 29.3511 7.41219 28.733C7.41219 27.43 7.01979 26.5217 6.23499 26.0081C5.67312 25.6513 5.01792 25.4717 4.35373 25.4926H2.88363C2.6086 25.516 2.33206 25.4712 2.07818 25.3623C1.93597 25.2307 1.82666 25.0672 1.75912 24.8851C1.69159 24.7029 1.66775 24.5074 1.68954 24.3142V22.1899C1.66806 21.9128 1.71448 21.6346 1.82472 21.3798C1.95827 21.2415 2.12188 21.1363 2.30268 21.0724C2.48349 21.0085 2.67657 20.9877 2.86674 21.0115H4.5565C5.20445 21.0433 5.84564 20.8667 6.38707 20.5073C6.61966 20.3266 6.80414 20.0908 6.92404 19.821C7.04395 19.5511 7.09555 19.2556 7.07424 18.9608C7.08863 18.6683 7.04193 18.3761 6.93716 18.1028C6.83239 17.8296 6.67186 17.5815 6.46593 17.3746C5.93083 16.859 5.03526 16.6041 3.79047 16.6041C3.41309 16.6041 3.10894 16.6041 2.90053 16.6041C2.59236 16.6248 2.28575 16.6645 1.98243 16.7231L0.979838 16.859C0.886427 16.8692 0.791945 16.8592 0.702623 16.8299C0.613302 16.8006 0.53117 16.7526 0.461645 16.6891C0.334969 16.4659 0.281737 16.2081 0.309566 15.9526L0.337729 15.964ZM25.7799 31.0727V17.148C25.7873 17.0926 25.782 17.0363 25.7642 16.9834C25.7465 16.9305 25.7168 16.8825 25.6776 16.843C25.6383 16.8035 25.5905 16.7737 25.5379 16.7558C25.4853 16.738 25.4293 16.7326 25.3743 16.7401H23.6846C23.3973 16.7401 23.2509 16.876 23.2509 17.148L23.0932 19.261C23.0932 22.711 22.8904 25.1074 22.4905 26.4273C22.0337 27.9404 21.6706 29.4804 21.4034 31.0387V31.3106C21.4428 31.4635 21.6005 31.5429 21.8653 31.5429H25.3124C25.3756 31.552 25.4402 31.5464 25.5009 31.5264C25.5617 31.5065 25.6171 31.4728 25.6628 31.4279C25.7085 31.383 25.7434 31.3281 25.7647 31.2675C25.7859 31.2069 25.7931 31.1422 25.7855 31.0783L25.7799 31.0727ZM19.6235 12.378H29.5593C30.0719 12.378 30.3986 12.4743 30.5281 12.6612C30.6827 12.9347 30.7533 13.2482 30.7309 13.562V31.1236C30.7195 31.2594 30.7348 31.3961 30.7759 31.5259C30.8154 31.5655 30.928 31.5882 31.1308 31.5882H31.863C32.1387 31.5629 32.4161 31.6097 32.6685 31.7241C32.8084 31.8568 32.915 32.021 32.9796 32.2032C33.0443 32.3854 33.065 32.5804 33.0402 32.7722V34.687C33.0402 35.2025 32.9445 35.5311 32.7586 35.6613C32.4856 35.8141 32.1748 35.8848 31.863 35.8653H15.371C14.8584 35.8653 14.5317 35.769 14.4022 35.5764C14.2494 35.3063 14.1789 34.997 14.1994 34.687V32.7269C14.1994 32.2113 14.3008 31.8828 14.4867 31.7468C14.7552 31.5932 15.0627 31.5223 15.371 31.5429H15.6695C16.0074 31.5429 16.2947 31.186 16.5425 30.4665C16.7155 29.9102 16.8491 29.3423 16.9424 28.767C17.4543 26.3352 17.8304 23.8765 18.0689 21.4024C18.2492 19.5443 18.3393 17.7503 18.3393 16.0206L18.4351 13.3637C18.4351 12.8935 18.5308 12.6046 18.7054 12.5196C18.9935 12.413 19.3002 12.3668 19.6066 12.3836L19.6235 12.378ZM42.0241 22.0539H43.9335C44.7225 22.0748 45.4918 21.8048 46.0964 21.2948C46.3838 21.0569 46.6133 20.7561 46.7675 20.4154C46.9218 20.0748 46.9966 19.7032 46.9864 19.329C47.0036 18.9983 46.9558 18.6674 46.8456 18.3554C46.7354 18.0433 46.565 17.7562 46.3443 17.5105C46.0201 17.2132 45.6393 16.9851 45.2249 16.84C44.8106 16.6949 44.3712 16.6359 43.9335 16.6664H42.0917C42.0323 16.6591 41.9719 16.6655 41.9153 16.6851C41.8587 16.7047 41.8073 16.737 41.7649 16.7796C41.7226 16.8222 41.6904 16.8739 41.6709 16.9309C41.6514 16.9878 41.6451 17.0485 41.6524 17.1083V21.7197C41.6524 21.9349 41.7763 22.0539 42.0185 22.0539H42.0241ZM37.8729 12.361H43.9617C47.3074 12.361 49.6618 13.2466 51.0249 15.0179C51.9587 16.3372 52.4284 17.932 52.3598 19.5499C52.3598 21.8386 51.6182 23.5551 50.135 24.6995C48.6517 25.8438 46.7066 26.4103 44.2997 26.399H42.1537C42.0851 26.3894 42.0153 26.396 41.9497 26.4184C41.8841 26.4407 41.8247 26.4781 41.776 26.5276C41.7273 26.5771 41.6908 26.6373 41.6693 26.7035C41.6479 26.7697 41.6421 26.84 41.6524 26.9088V34.7436C41.6524 35.2591 41.5566 35.5877 41.3707 35.718C41.0998 35.8709 40.7908 35.9417 40.4808 35.9219H37.8729C37.5979 35.9453 37.3214 35.9006 37.0675 35.7916C36.93 35.6573 36.8254 35.4928 36.7619 35.3109C36.6984 35.1291 36.6777 34.9349 36.7014 34.7436V13.545C36.6781 13.2684 36.7226 12.9902 36.8309 12.7349C36.9631 12.5945 37.1264 12.4875 37.3075 12.4226C37.4885 12.3576 37.6823 12.3365 37.8729 12.361ZM78.016 31.5429H79.5537C80.5182 31.6173 81.4753 31.3241 82.2348 30.7214C82.5275 30.4648 82.7604 30.1465 82.9171 29.7891C83.0739 29.4318 83.1505 29.0441 83.1416 28.6537C83.1506 28.2779 83.0833 27.9043 82.9438 27.5556C82.8044 27.2069 82.5957 26.8904 82.3305 26.6256C81.9523 26.292 81.5123 26.0366 81.0358 25.8743C80.5593 25.712 80.0557 25.6458 79.5537 25.6795H78.1174C77.8752 25.6795 77.7175 25.7362 77.6668 25.8495C77.608 25.9751 77.5791 26.1128 77.5823 26.2517V31.1576C77.5823 31.4069 77.7287 31.5429 78.016 31.5429ZM79.289 21.2834C80.1224 21.3474 80.9518 21.1148 81.6321 20.6263C81.8754 20.4311 82.0713 20.1827 82.205 19.9001C82.3387 19.6174 82.4067 19.3078 82.4037 18.9948C82.4148 18.7142 82.3669 18.4344 82.263 18.1737C82.1592 17.9131 82.0017 17.6774 81.8011 17.4822C81.0724 16.9276 80.1657 16.6633 79.2552 16.7401H78.185C77.7851 16.7401 77.5823 16.8987 77.5823 17.2103V20.8812C77.5823 21.1475 77.7963 21.2834 78.2188 21.2834H79.289ZM72.6595 34.7776V13.307C72.6421 13.1713 72.6537 13.0333 72.6935 12.9024C72.7334 12.7715 72.8005 12.6507 72.8904 12.5479C73.1199 12.4064 73.3879 12.341 73.6564 12.361H80.1169C82.6854 12.361 84.6173 12.9558 85.9128 14.1455C86.4764 14.6783 86.919 15.3271 87.2106 16.0476C87.5022 16.7681 87.6359 17.5434 87.6026 18.3206C87.6141 19.3235 87.3341 20.308 86.7971 21.1531C86.2218 22.0178 85.3901 22.6779 84.4202 23.0396V23.2266C85.6361 23.6094 86.6892 24.3913 87.4111 25.4473C88.1524 26.5471 88.5343 27.8521 88.5038 29.1805C88.5457 30.0395 88.4179 30.8983 88.1279 31.7073C87.8378 32.5163 87.3913 33.2594 86.814 33.8939C85.5035 35.261 83.4965 35.9446 80.7928 35.9446H73.6283C72.9636 35.9446 72.6313 35.565 72.6313 34.8116L72.6595 34.7776ZM96.609 22.3938V34.7436C96.609 35.2591 96.5132 35.5877 96.3274 35.718C96.0565 35.8709 95.7474 35.9417 95.4374 35.9219H92.8296C92.5545 35.9453 92.278 35.9006 92.0241 35.7916C91.8867 35.6573 91.7821 35.4928 91.7185 35.3109C91.655 35.1291 91.6343 34.9349 91.658 34.7436V13.545C91.6348 13.2684 91.6792 12.9902 91.7876 12.7349C91.9198 12.5945 92.083 12.4875 92.2641 12.4226C92.4451 12.3576 92.6389 12.3365 92.8296 12.361H95.7529C96.0105 12.3627 96.262 12.4404 96.4762 12.5844C96.6905 12.7284 96.858 12.9323 96.9582 13.1711L100.574 20.4394C100.626 20.567 100.688 20.6902 100.76 20.8076C100.839 20.9435 100.912 21.0172 100.974 21.0172C101.036 21.0172 101.149 20.9265 101.228 20.7623C101.275 20.6713 101.314 20.5765 101.346 20.479L104.962 13.2731C105.09 12.9945 105.283 12.7514 105.525 12.5649C105.732 12.4266 105.976 12.3554 106.224 12.361H109.04C109.553 12.361 109.879 12.4573 110.009 12.6442C110.166 12.917 110.238 13.2306 110.217 13.545V34.7436C110.217 35.2591 110.121 35.5877 109.93 35.718C109.659 35.8709 109.35 35.9417 109.04 35.9219H106.455C105.942 35.9219 105.615 35.8256 105.486 35.6387C105.334 35.3662 105.263 35.0554 105.283 34.7436V22.762C105.244 22.6317 105.193 22.5637 105.154 22.5637L105.052 22.6261L102.439 28.9539C102.364 29.2191 102.227 29.4621 102.039 29.6621C101.896 29.7781 101.716 29.8384 101.532 29.832H100.405C100.028 29.832 99.7238 29.5374 99.5041 28.9539L96.823 22.3598C96.7436 22.379 96.6625 22.3903 96.5808 22.3938H96.609ZM141.635 31.0727V17.148C141.644 17.0929 141.639 17.0367 141.622 16.9837C141.605 16.9308 141.576 16.8826 141.537 16.8429C141.499 16.8033 141.451 16.7734 141.399 16.7555C141.346 16.7376 141.29 16.7324 141.236 16.7401H139.546C139.259 16.7401 139.106 16.876 139.106 17.148L138.932 19.261C138.932 22.711 138.729 25.1074 138.329 26.4273C137.861 27.9495 137.484 29.4989 137.203 31.067V31.3389C137.248 31.4919 137.405 31.5712 137.67 31.5712H141.117C141.18 31.5805 141.245 31.575 141.305 31.5551C141.366 31.5351 141.421 31.5013 141.466 31.4563C141.512 31.4112 141.546 31.3562 141.566 31.2955C141.587 31.2348 141.593 31.1702 141.585 31.1066L141.635 31.0727ZM135.485 12.378H145.415C145.927 12.378 146.254 12.4743 146.384 12.6612C146.541 12.934 146.613 13.2476 146.592 13.562V31.1236C146.581 31.2594 146.596 31.3961 146.637 31.5259C146.671 31.5655 146.789 31.5882 146.992 31.5882H147.724C148 31.5629 148.277 31.6097 148.53 31.7241C148.668 31.8579 148.773 32.0224 148.837 32.2044C148.9 32.3864 148.92 32.5809 148.896 32.7722V34.6926C148.896 35.2081 148.806 35.5367 148.614 35.667C148.343 35.8176 148.034 35.8864 147.724 35.8653H131.204C130.691 35.8653 130.365 35.769 130.235 35.582C130.08 35.313 130.009 35.0029 130.032 34.6926V32.7269C130.032 32.2113 130.128 31.8828 130.314 31.7468C130.585 31.5939 130.894 31.5231 131.204 31.5429H131.503C131.835 31.5429 132.128 31.186 132.37 30.4665C132.543 29.9098 132.678 29.342 132.775 28.767C133.287 26.3352 133.663 23.8765 133.902 21.4024C134.082 19.5443 134.172 17.7503 134.172 16.0206L134.274 13.3637C134.274 12.8935 134.364 12.6046 134.538 12.5196C134.829 12.4133 135.137 12.3671 135.445 12.3836L135.485 12.378ZM149.82 12.378H164.644C164.752 12.3654 164.862 12.3825 164.961 12.4274C165.06 12.4722 165.145 12.5433 165.208 12.6329C165.309 12.8042 165.362 13.0001 165.36 13.1994V16.1962C165.373 16.2921 165.364 16.3898 165.333 16.4815C165.302 16.5732 165.251 16.6564 165.182 16.7246C165.114 16.7928 165.031 16.844 164.939 16.8742C164.848 16.9044 164.751 16.9128 164.656 16.8987H160.302C160.22 16.8872 160.137 16.895 160.059 16.9215C159.981 16.948 159.91 16.9924 159.852 17.0513C159.794 17.1101 159.751 17.1818 159.725 17.2605C159.699 17.3393 159.692 17.4229 159.705 17.5049V34.7436C159.726 35.0207 159.68 35.2989 159.569 35.5537C159.436 35.692 159.272 35.7972 159.092 35.861C158.911 35.9249 158.718 35.9458 158.527 35.9219H155.92C155.407 35.9219 155.08 35.8256 154.951 35.6387C154.799 35.3662 154.728 35.0554 154.748 34.7436V17.4765C154.754 17.3954 154.742 17.314 154.714 17.2377C154.686 17.1615 154.642 17.0923 154.585 17.0348C154.527 16.9773 154.459 16.9328 154.383 16.9045C154.307 16.8761 154.226 16.8645 154.145 16.8704H149.927C149.363 16.8704 149.093 16.6494 149.093 16.2019V13.0295C149.054 12.5763 149.301 12.361 149.791 12.361L149.82 12.378ZM185.04 12.378H188.357C188.591 12.3814 188.82 12.4458 189.022 12.5649C189.268 12.718 189.456 12.9493 189.557 13.2221L191.196 17.0573C191.309 17.2783 191.399 17.3916 191.461 17.3916C191.619 17.2613 191.697 17.1706 191.697 17.1253L193.708 12.9501C193.759 12.841 193.826 12.7399 193.905 12.6499C194.128 12.457 194.417 12.3594 194.711 12.378H198.259C198.744 12.378 198.992 12.5819 198.992 12.9841C198.989 13.152 198.942 13.3161 198.856 13.46L194.412 22.779C194.367 22.8861 194.355 23.0048 194.379 23.1189C194.405 23.2689 194.448 23.4153 194.508 23.5551L199.527 34.8286C199.618 35.0032 199.664 35.1979 199.662 35.3951C199.662 35.769 199.437 35.9616 198.992 35.9616H195.578C195.361 35.979 195.143 35.9441 194.942 35.8596C194.652 35.651 194.435 35.3556 194.322 35.0155L191.613 29.3505C191.5 29.1692 191.427 29.0786 191.382 29.0786C191.337 29.0786 191.191 29.2145 191.078 29.4185L188.566 34.9022C188.479 35.124 188.356 35.3291 188.2 35.5084C188.093 35.636 187.959 35.7382 187.808 35.8078C187.657 35.8773 187.493 35.9124 187.327 35.9106H183.75C183.327 35.9106 183.119 35.7067 183.119 35.3045C183.126 35.109 183.17 34.9168 183.249 34.7379L188.402 23.5665C188.5 23.3925 188.557 23.199 188.571 23C188.569 22.9079 188.548 22.8173 188.509 22.7337C188.469 22.6587 188.433 22.5811 188.402 22.5014L184.409 13.341C184.346 13.2142 184.311 13.075 184.308 12.9332C184.308 12.5536 184.544 12.361 185.012 12.361L185.04 12.378ZM115.382 15.0349V34.7436C115.357 34.9349 115.377 35.1295 115.441 35.3116C115.504 35.4937 115.61 35.6581 115.748 35.7916C116.001 35.8997 116.275 35.9444 116.548 35.9219H127.109C127.299 35.9467 127.493 35.9263 127.674 35.8623C127.855 35.7984 128.018 35.6927 128.151 35.5537C128.261 35.2989 128.308 35.0207 128.286 34.7436V32.3869C128.299 32.1662 128.24 31.9473 128.117 31.7638C128.018 31.6754 127.9 31.6099 127.773 31.5718C127.645 31.5336 127.511 31.5238 127.38 31.5429H123.916H120.328V26.212H123.437C123.567 26.212 123.692 26.1603 123.785 26.068C123.878 25.9758 123.931 25.8504 123.932 25.7192V22.2748C123.931 22.1436 123.878 22.0182 123.785 21.926C123.692 21.8337 123.567 21.782 123.437 21.782H120.328V16.6834H123.916V16.7457H127.295C127.576 16.7683 127.855 16.69 128.084 16.5248C128.164 16.4544 128.228 16.3673 128.272 16.2695C128.316 16.1717 128.338 16.0655 128.337 15.9583V13.545C128.358 13.2306 128.286 12.917 128.129 12.6442C127.999 12.4573 127.672 12.361 127.16 12.361H116.548C116.358 12.3365 116.165 12.3576 115.985 12.4226C115.805 12.4876 115.643 12.5946 115.512 12.7349C115.403 12.9902 115.359 13.2684 115.382 13.545V15.0349Z" fill="#005ED2"/>
</g>
<defs>
<clipPath id="clip0_7_682">
<rect width="200" height="48" fill="white"/>
</clipPath>
</defs>
</svg>
